<svg xmlns="http://www.w3.org/2000/svg" xmlns:xlink="http://www.w3.org/1999/xlink" id="svg" version="1.1" viewBox="-0.01 0 399.97 564.27"><g id="svgg"><path id="path0" d="M74.502 195.583 C 74.598 196.271,75.574 206.883,76.669 219.167 C 77.764 231.450,78.745 242.137,78.850 242.917 L 79.041 244.333 174.520 244.333 L 270.000 244.333 269.999 245.417 C 269.999 246.012,269.024 257.440,267.833 270.811 C 266.641 284.181,265.667 295.244,265.667 295.394 C 265.667 295.544,224.635 295.667,174.485 295.667 L 83.303 295.667 83.481 296.750 C 83.578 297.346,84.567 308.258,85.677 321.000 C 86.788 333.742,87.768 344.504,87.855 344.917 L 88.013 345.667 174.702 345.667 L 261.392 345.667 261.206 346.917 C 261.103 347.604,259.791 362.117,258.290 379.167 C 256.788 396.217,255.453 410.290,255.322 410.441 C 255.191 410.593,242.608 414.086,227.359 418.204 L 199.634 425.691 171.966 418.218 C 156.750 414.107,144.199 410.644,144.077 410.522 C 143.914 410.358,140.450 373.720,140.349 371.083 C 140.337 370.754,135.103 370.667,115.333 370.667 L 90.333 370.667 90.322 371.583 C 90.312 372.377,97.044 449.069,97.137 449.225 C 97.156 449.257,120.241 455.687,148.436 463.514 L 199.699 477.745 250.889 463.556 C 279.043 455.751,302.123 449.321,302.177 449.266 C 302.232 449.212,305.372 414.517,309.156 372.167 C 322.285 225.220,324.996 194.832,324.998 194.583 C 324.999 194.446,268.598 194.333,199.663 194.333 L 74.325 194.333 74.502 195.583 " stroke="none" fill="#f4f4f4" fill-rule="evenodd"/><path id="path1" d="M-0.008 111.583 C -0.018 112.697,35.978 517.552,36.172 518.509 C 36.294 519.110,194.696 563.599,199.112 564.273 C 200.862 564.540,363.325 519.301,363.492 518.500 C 363.568 518.133,371.737 426.708,381.645 315.333 C 391.553 203.958,399.726 112.346,399.809 111.750 L 399.958 110.667 199.979 110.667 L 0.000 110.667 -0.008 111.583 M363.123 145.583 C 363.043 146.271,359.759 182.983,355.826 227.167 C 349.784 295.052,341.412 388.948,333.928 472.773 C 332.966 483.556,332.081 492.536,331.962 492.728 C 331.843 492.920,302.141 501.287,265.956 511.321 L 200.167 529.565 200.081 503.798 L 199.996 478.030 198.915 477.727 C 198.320 477.561,175.258 471.159,147.667 463.501 C 120.075 455.842,97.377 449.467,97.228 449.333 C 97.033 449.158,90.004 372.899,90.000 370.917 C 90.000 370.779,101.362 370.667,115.250 370.667 L 140.500 370.667 142.273 390.579 C 143.249 401.531,144.074 410.507,144.107 410.527 C 144.427 410.718,199.075 425.333,199.471 425.333 C 199.951 425.333,200.000 421.685,200.000 385.667 L 200.000 346.000 143.990 346.000 C 99.483 346.000,87.948 345.914,87.829 345.583 C 87.673 345.150,83.333 297.353,83.333 296.065 L 83.333 295.333 141.667 295.333 L 200.000 295.333 200.000 270.000 L 200.000 244.667 139.490 244.667 C 91.378 244.667,78.950 244.581,78.838 244.250 C 78.698 243.833,74.330 196.018,74.332 194.917 C 74.333 194.363,77.548 194.333,137.167 194.333 L 200.000 194.333 200.000 169.333 L 200.000 144.333 281.635 144.333 L 363.270 144.333 363.123 145.583 " stroke="none" fill="#244ce4" fill-rule="evenodd"/><path id="path2" d="M94.000 38.168 L 94.000 76.337 124.417 76.252 L 154.833 76.167 154.921 63.417 L 155.008 50.667 137.337 50.667 L 119.667 50.667 119.667 38.170 L 119.667 25.673 137.250 25.586 L 154.833 25.500 154.921 12.750 L 155.008 0.000 124.504 0.000 L 94.000 0.000 94.000 38.168 M166.667 24.833 L 166.667 49.667 184.333 49.667 L 202.000 49.667 202.000 51.833 L 202.000 54.000 184.333 54.000 L 166.667 54.000 166.667 65.667 L 166.667 77.333 197.167 77.333 L 227.667 77.333 227.667 51.833 L 227.667 26.333 210.000 26.333 L 192.333 26.333 192.333 24.333 L 192.333 22.333 210.000 22.333 L 227.667 22.333 227.667 11.167 L 227.667 0.000 197.167 0.000 L 166.667 0.000 166.667 24.833 M239.333 24.833 L 239.333 49.667 257.000 49.667 L 274.667 49.667 274.667 51.833 L 274.667 54.000 257.000 54.000 L 239.333 54.000 239.333 65.667 L 239.333 77.333 269.833 77.333 L 300.333 77.333 300.333 51.833 L 300.333 26.333 282.667 26.333 L 265.000 26.333 265.000 24.333 L 265.000 22.333 282.667 22.333 L 300.333 22.333 300.333 11.167 L 300.333 0.000 269.833 0.000 L 239.333 0.000 239.333 24.833 " stroke="none" fill="#040404" fill-rule="evenodd"/><path id="path3" d="M200.000 169.333 L 200.000 194.333 262.500 194.333 C 296.875 194.333,324.999 194.446,324.998 194.583 C 324.996 194.833,322.049 227.871,309.155 372.165 C 305.371 414.514,302.147 449.239,301.990 449.332 C 301.833 449.424,278.684 455.874,250.547 463.664 C 222.410 471.454,199.525 477.913,199.692 478.016 C 199.869 478.125,200.031 488.908,200.081 503.884 L 200.167 529.565 265.956 511.321 C 302.141 501.287,331.843 492.920,331.962 492.728 C 332.081 492.536,332.966 483.556,333.928 472.773 C 341.412 388.948,349.784 295.052,355.826 227.167 C 359.759 182.983,363.043 146.271,363.123 145.583 L 363.270 144.333 281.635 144.333 L 200.000 144.333 200.000 169.333 M74.411 196.333 C 74.411 196.975,74.479 197.237,74.563 196.917 C 74.647 196.596,74.647 196.071,74.563 195.750 C 74.479 195.429,74.411 195.692,74.411 196.333 M74.744 200.000 C 74.744 200.642,74.813 200.904,74.896 200.583 C 74.980 200.262,74.980 199.737,74.896 199.417 C 74.813 199.096,74.744 199.358,74.744 200.000 M75.077 203.667 C 75.077 204.308,75.146 204.571,75.230 204.250 C 75.314 203.929,75.314 203.404,75.230 203.083 C 75.146 202.762,75.077 203.025,75.077 203.667 M75.411 207.333 C 75.411 207.975,75.479 208.237,75.563 207.917 C 75.647 207.596,75.647 207.071,75.563 206.750 C 75.479 206.429,75.411 206.692,75.411 207.333 M75.744 211.000 C 75.744 211.642,75.813 211.904,75.896 211.583 C 75.980 211.262,75.980 210.737,75.896 210.417 C 75.813 210.096,75.744 210.358,75.744 211.000 M76.077 214.667 C 76.077 215.308,76.146 215.571,76.230 215.250 C 76.314 214.929,76.314 214.404,76.230 214.083 C 76.146 213.762,76.077 214.025,76.077 214.667 M76.411 218.333 C 76.411 218.975,76.479 219.237,76.563 218.917 C 76.647 218.596,76.647 218.071,76.563 217.750 C 76.479 217.429,76.411 217.692,76.411 218.333 M76.744 222.000 C 76.744 222.642,76.813 222.904,76.896 222.583 C 76.980 222.262,76.980 221.737,76.896 221.417 C 76.813 221.096,76.744 221.358,76.744 222.000 M77.077 225.667 C 77.077 226.308,77.146 226.571,77.230 226.250 C 77.314 225.929,77.314 225.404,77.230 225.083 C 77.146 224.762,77.077 225.025,77.077 225.667 M77.411 229.333 C 77.411 229.975,77.479 230.237,77.563 229.917 C 77.647 229.596,77.647 229.071,77.563 228.750 C 77.479 228.429,77.411 228.692,77.411 229.333 M77.744 233.000 C 77.744 233.642,77.813 233.904,77.896 233.583 C 77.980 233.262,77.980 232.737,77.896 232.417 C 77.813 232.096,77.744 232.358,77.744 233.000 M78.077 236.667 C 78.077 237.308,78.146 237.571,78.230 237.250 C 78.314 236.929,78.314 236.404,78.230 236.083 C 78.146 235.762,78.077 236.025,78.077 236.667 M78.411 240.333 C 78.411 240.975,78.479 241.237,78.563 240.917 C 78.647 240.596,78.647 240.071,78.563 239.750 C 78.479 239.429,78.411 239.692,78.411 240.333 M78.779 243.667 L 78.833 244.500 139.417 244.584 L 200.000 244.668 200.000 270.000 L 200.000 295.331 141.583 295.417 C 97.727 295.481,105.911 295.522,174.417 295.584 C 224.604 295.630,265.667 295.544,265.667 295.394 C 265.667 295.244,266.641 284.181,267.833 270.811 C 269.024 257.440,269.999 246.012,269.999 245.417 L 270.000 244.333 174.523 244.333 L 79.046 244.333 78.885 243.583 C 78.743 242.922,78.731 242.932,78.779 243.667 M83.411 297.667 C 83.411 298.308,83.479 298.571,83.563 298.250 C 83.647 297.929,83.647 297.404,83.563 297.083 C 83.479 296.762,83.411 297.025,83.411 297.667 M83.744 301.333 C 83.744 301.975,83.813 302.237,83.896 301.917 C 83.980 301.596,83.980 301.071,83.896 300.750 C 83.813 300.429,83.744 300.692,83.744 301.333 M84.077 305.000 C 84.077 305.642,84.146 305.904,84.230 305.583 C 84.314 305.262,84.314 304.737,84.230 304.417 C 84.146 304.096,84.077 304.358,84.077 305.000 M84.411 308.667 C 84.411 309.308,84.479 309.571,84.563 309.250 C 84.647 308.929,84.647 308.404,84.563 308.083 C 84.479 307.762,84.411 308.025,84.411 308.667 M85.744 323.667 C 85.744 324.308,85.813 324.571,85.896 324.250 C 85.980 323.929,85.980 323.404,85.896 323.083 C 85.813 322.762,85.744 323.025,85.744 323.667 M86.077 327.333 C 86.077 327.975,86.146 328.237,86.230 327.917 C 86.314 327.596,86.314 327.071,86.230 326.750 C 86.146 326.429,86.077 326.692,86.077 327.333 M86.411 331.000 C 86.411 331.642,86.479 331.904,86.563 331.583 C 86.647 331.262,86.647 330.737,86.563 330.417 C 86.479 330.096,86.411 330.358,86.411 331.000 M87.803 345.408 C 87.872 345.750,98.834 345.850,143.944 345.918 L 200.000 346.002 200.000 385.643 C 200.000 423.116,199.968 425.293,199.417 425.437 C 199.005 425.544,198.980 425.599,199.333 425.621 C 200.071 425.668,255.043 410.764,255.322 410.441 C 255.453 410.290,256.788 396.217,258.290 379.167 C 259.791 362.117,261.103 347.604,261.206 346.917 L 261.392 345.667 174.724 345.667 C 115.868 345.667,88.001 345.557,87.886 345.325 C 87.793 345.137,87.755 345.175,87.803 345.408 M90.084 371.833 C 90.088 372.567,90.156 372.827,90.236 372.413 C 90.315 371.998,90.312 371.398,90.229 371.079 C 90.146 370.761,90.080 371.100,90.084 371.833 M140.411 371.667 C 140.411 372.308,140.479 372.571,140.563 372.250 C 140.647 371.929,140.647 371.404,140.563 371.083 C 140.479 370.762,140.411 371.025,140.411 371.667 M141.411 383.000 C 141.411 383.642,141.479 383.904,141.563 383.583 C 141.647 383.262,141.647 382.738,141.563 382.417 C 141.479 382.096,141.411 382.358,141.411 383.000 M91.077 383.333 C 91.077 383.975,91.146 384.238,91.230 383.917 C 91.314 383.596,91.314 383.071,91.230 382.750 C 91.146 382.429,91.077 382.692,91.077 383.333 M141.744 386.667 C 141.744 387.308,141.813 387.571,141.896 387.250 C 141.980 386.929,141.980 386.404,141.896 386.083 C 141.813 385.762,141.744 386.025,141.744 386.667 M91.411 387.000 C 91.411 387.642,91.479 387.904,91.563 387.583 C 91.647 387.262,91.647 386.738,91.563 386.417 C 91.479 386.096,91.411 386.358,91.411 387.000 M142.077 390.333 C 142.077 390.975,142.146 391.238,142.230 390.917 C 142.314 390.596,142.314 390.071,142.230 389.750 C 142.146 389.429,142.077 389.692,142.077 390.333 M91.744 390.667 C 91.744 391.308,91.813 391.571,91.896 391.250 C 91.980 390.929,91.980 390.404,91.896 390.083 C 91.813 389.762,91.744 390.025,91.744 390.667 M143.077 401.667 C 143.077 402.308,143.146 402.571,143.230 402.250 C 143.314 401.929,143.314 401.404,143.230 401.083 C 143.146 400.762,143.077 401.025,143.077 401.667 M92.744 402.000 C 92.744 402.642,92.813 402.904,92.896 402.583 C 92.980 402.262,92.980 401.738,92.896 401.417 C 92.813 401.096,92.744 401.358,92.744 402.000 M143.411 405.333 C 143.411 405.975,143.479 406.238,143.563 405.917 C 143.647 405.596,143.647 405.071,143.563 404.750 C 143.479 404.429,143.411 404.692,143.411 405.333 M93.077 405.667 C 93.077 406.308,93.146 406.571,93.230 406.250 C 93.314 405.929,93.314 405.404,93.230 405.083 C 93.146 404.762,93.077 405.025,93.077 405.667 M143.744 409.000 C 143.744 409.642,143.813 409.904,143.896 409.583 C 143.980 409.262,143.980 408.738,143.896 408.417 C 143.813 408.096,143.744 408.358,143.744 409.000 M94.077 417.000 C 94.077 417.642,94.146 417.904,94.230 417.583 C 94.314 417.262,94.314 416.738,94.230 416.417 C 94.146 416.096,94.077 416.358,94.077 417.000 M94.411 420.667 C 94.411 421.308,94.479 421.571,94.563 421.250 C 94.647 420.929,94.647 420.404,94.563 420.083 C 94.479 419.762,94.411 420.025,94.411 420.667 M94.744 424.333 C 94.744 424.975,94.813 425.238,94.896 424.917 C 94.980 424.596,94.980 424.071,94.896 423.750 C 94.813 423.429,94.744 423.692,94.744 424.333 M95.744 435.667 C 95.744 436.308,95.813 436.571,95.896 436.250 C 95.980 435.929,95.980 435.404,95.896 435.083 C 95.813 434.762,95.744 435.025,95.744 435.667 M96.077 439.333 C 96.077 439.975,96.146 440.238,96.230 439.917 C 96.314 439.596,96.314 439.071,96.230 438.750 C 96.146 438.429,96.077 438.692,96.077 439.333 M96.411 443.000 C 96.411 443.642,96.479 443.904,96.563 443.583 C 96.647 443.262,96.647 442.738,96.563 442.417 C 96.479 442.096,96.411 442.358,96.411 443.000 " stroke="none" fill="#2c63f3" fill-rule="evenodd"/></g></svg>