<svg xmlns="http://www.w3.org/2000/svg" xmlns:xlink="http://www.w3.org/1999/xlink" id="svg" version="1.1" viewBox="57.99 0 284.02 400.01"><g id="svgg"><path id="path0" d="M84.667 27.000 L 84.667 54.000 93.833 54.000 L 103.000 54.000 103.000 45.000 L 103.000 36.000 111.000 36.000 L 119.000 36.000 119.000 45.000 L 119.000 54.000 128.167 54.000 L 137.333 54.000 137.333 27.000 L 137.333 0.000 128.167 0.000 L 119.000 0.000 119.000 8.833 L 119.000 17.667 110.833 17.667 L 102.667 17.667 102.667 8.833 L 102.667 0.000 93.667 0.000 L 84.667 0.000 84.667 27.000 M145.000 9.000 L 145.000 18.000 152.833 18.000 L 160.667 18.000 160.667 36.000 L 160.667 54.000 169.833 54.000 L 179.000 54.000 179.000 36.000 L 179.000 18.000 187.000 18.000 L 195.000 18.000 195.000 9.000 L 195.000 0.000 170.000 0.000 L 145.000 0.000 145.000 9.000 M202.667 27.000 L 202.667 54.000 211.663 54.000 L 220.659 54.000 220.746 41.113 L 220.833 28.227 226.796 37.447 C 230.075 42.518,232.850 46.665,232.963 46.664 C 233.075 46.662,235.867 42.503,239.167 37.421 L 245.167 28.180 245.254 41.090 L 245.341 54.000 254.504 54.000 L 263.667 54.000 263.667 27.000 L 263.667 0.000 254.047 0.000 L 244.427 0.000 238.780 9.292 L 233.133 18.583 227.483 9.293 L 221.833 0.002 212.250 0.001 L 202.667 0.000 202.667 27.000 M272.333 27.000 L 272.333 54.000 294.167 54.000 L 316.000 54.000 316.000 45.000 L 316.000 36.000 303.333 36.000 L 290.667 36.000 290.667 18.000 L 290.667 0.000 281.500 0.000 L 272.333 0.000 272.333 27.000 " stroke="none" fill="#040404" fill-rule="evenodd"/><path id="path1" d="M58.171 79.583 C 58.269 80.271,58.943 87.583,59.667 95.833 C 60.392 104.083,61.966 121.858,63.166 135.333 C 64.366 148.808,66.016 167.333,66.832 176.500 C 70.893 222.119,74.556 263.227,76.513 285.167 C 77.706 298.550,79.359 317.075,80.185 326.333 C 81.011 335.592,82.182 348.754,82.787 355.583 C 83.393 362.412,83.951 368.048,84.027 368.107 C 84.377 368.377,199.247 400.009,199.864 400.005 C 200.247 400.002,204.297 398.960,208.864 397.688 C 218.604 394.977,251.918 385.744,287.167 375.987 C 313.539 368.688,315.701 368.077,315.918 367.859 C 316.036 367.741,316.468 363.862,316.877 359.239 C 317.746 349.427,321.688 305.185,323.834 281.167 C 324.653 272.000,326.003 256.850,326.834 247.500 C 327.665 238.150,329.015 223.000,329.834 213.833 C 330.653 204.667,331.702 192.892,332.167 187.667 C 332.631 182.442,333.681 170.667,334.500 161.500 C 335.319 152.333,337.263 130.433,338.819 112.833 C 340.376 95.233,341.730 80.271,341.829 79.583 L 342.008 78.333 200.000 78.333 L 57.992 78.333 58.171 79.583 M315.738 103.583 C 315.676 104.271,310.707 159.774,304.696 226.923 C 298.684 294.072,293.700 349.078,293.619 349.159 C 293.490 349.288,200.470 375.333,200.137 375.333 C 200.065 375.333,199.967 367.121,199.920 357.083 L 199.833 338.833 163.500 328.704 C 143.517 323.132,127.143 318.557,127.113 318.537 C 127.084 318.517,125.999 306.575,124.702 292.000 C 123.405 277.425,122.258 264.862,122.152 264.083 L 121.959 262.667 139.980 262.667 C 154.164 262.667,158.000 262.755,158.000 263.083 C 158.000 263.912,160.411 290.836,160.494 290.928 C 160.540 290.980,169.261 293.345,179.873 296.184 C 190.484 299.023,199.354 301.413,199.583 301.495 C 199.915 301.615,200.000 295.839,200.000 273.323 L 200.000 245.000 160.246 245.000 L 120.493 245.000 115.659 191.417 L 110.824 137.833 155.412 137.749 L 200.000 137.664 200.000 119.999 L 200.000 102.333 257.925 102.333 L 315.851 102.333 315.738 103.583 M150.110 174.917 C 150.218 175.787,150.920 183.550,151.671 192.167 C 152.421 200.783,153.105 208.171,153.191 208.583 L 153.346 209.333 176.673 209.333 L 200.000 209.333 200.000 191.333 L 200.000 173.333 174.957 173.333 L 149.914 173.333 150.110 174.917 " stroke="none" fill="#e44c24" fill-rule="evenodd"/><path id="path2" d="M111.000 137.957 C 111.000 138.568,120.337 241.913,120.528 243.417 L 120.729 245.000 182.224 245.000 L 243.720 245.000 243.543 245.917 C 243.446 246.421,242.523 256.508,241.492 268.333 C 240.461 280.158,239.496 290.140,239.347 290.514 C 239.117 291.095,236.189 291.968,219.455 296.447 L 199.833 301.698 180.333 296.480 C 169.608 293.610,160.703 291.140,160.545 290.992 C 160.386 290.844,159.708 284.448,159.039 276.778 L 157.821 262.833 140.077 262.747 L 122.333 262.661 122.333 263.414 C 122.332 264.523,127.004 317.044,127.177 317.874 C 127.271 318.323,127.661 318.650,128.246 318.768 C 128.752 318.870,145.049 323.386,164.460 328.802 L 199.754 338.651 235.960 328.619 C 255.874 323.102,272.258 318.493,272.369 318.377 C 272.481 318.261,274.697 294.242,277.294 265.000 C 279.892 235.758,282.095 211.346,282.190 210.750 L 282.364 209.667 217.838 209.667 C 166.515 209.667,153.284 209.581,153.172 209.250 C 153.005 208.753,149.996 175.573,149.998 174.251 L 150.000 173.335 217.743 173.251 L 285.487 173.167 287.061 156.333 C 287.927 147.075,288.643 139.087,288.651 138.583 L 288.667 137.667 199.833 137.667 C 149.531 137.667,111.000 137.793,111.000 137.957 " stroke="none" fill="#f3f3f3" fill-rule="evenodd"/><path id="path3" d="M200.000 120.000 L 200.000 137.667 244.333 137.667 L 288.667 137.667 288.651 138.583 C 288.643 139.087,287.927 147.075,287.061 156.333 L 285.487 173.167 242.743 173.251 L 200.000 173.336 200.000 191.335 L 200.000 209.333 176.694 209.333 C 161.111 209.333,153.333 209.220,153.219 208.992 C 153.126 208.804,153.089 208.841,153.136 209.075 C 153.205 209.417,165.781 209.516,217.793 209.584 L 282.363 209.668 282.190 210.751 C 282.095 211.346,279.892 235.758,277.294 265.000 C 274.697 294.242,272.481 318.261,272.369 318.377 C 272.258 318.492,256.342 322.964,237.000 328.314 C 217.658 333.663,201.383 338.180,200.833 338.352 L 199.833 338.663 199.922 356.998 C 199.971 367.083,200.069 375.333,200.140 375.333 C 200.471 375.333,293.490 349.288,293.619 349.159 C 293.700 349.078,298.684 294.072,304.696 226.923 C 310.707 159.774,315.676 104.271,315.738 103.583 L 315.851 102.333 257.925 102.333 L 200.000 102.333 200.000 120.000 M200.000 273.369 C 200.000 295.925,200.085 301.706,200.417 301.583 C 200.646 301.497,209.438 299.126,219.955 296.312 C 236.259 291.950,239.117 291.096,239.347 290.515 C 239.496 290.140,240.461 280.158,241.492 268.333 C 242.523 256.508,243.446 246.421,243.543 245.917 L 243.720 245.000 221.860 245.000 L 200.000 245.000 200.000 273.369 " stroke="none" fill="#f36324" fill-rule="evenodd"/></g></svg>