<svg xmlns="http://www.w3.org/2000/svg" xmlns:xlink="http://www.w3.org/1999/xlink" id="svg" version="1.1" viewBox="111.37 0.17 177.26 249.8"><g id="svgg"><path id="path0" d="M111.388 49.931 C 111.332 50.077,111.445 52.008,111.639 54.223 C 111.832 56.438,112.060 59.188,112.145 60.333 C 112.329 62.816,112.844 68.658,113.446 75.083 C 113.686 77.650,113.941 80.725,114.012 81.917 C 114.083 83.108,114.189 84.496,114.247 85.000 C 114.306 85.504,114.419 86.479,114.500 87.167 C 114.581 87.854,114.723 89.317,114.816 90.417 C 115.158 94.446,116.019 104.182,116.349 107.750 C 116.536 109.767,116.762 112.392,116.851 113.583 C 116.940 114.775,117.231 118.150,117.498 121.083 C 117.765 124.017,118.066 127.504,118.168 128.833 C 118.270 130.162,118.462 132.188,118.596 133.333 C 118.730 134.479,118.912 136.467,119.000 137.750 C 119.088 139.033,119.315 141.471,119.505 143.167 C 119.695 144.862,119.912 147.262,119.988 148.500 C 120.064 149.737,120.322 152.813,120.561 155.333 C 120.800 157.854,121.077 160.929,121.175 162.167 C 121.273 163.404,121.462 165.366,121.593 166.527 C 121.725 167.688,121.906 169.788,121.995 171.194 C 122.083 172.600,122.312 175.213,122.501 177.000 C 122.691 178.787,122.922 181.300,123.013 182.583 C 123.198 185.168,123.171 184.893,123.653 189.123 C 123.844 190.795,124.000 192.557,124.000 193.040 C 124.000 193.522,124.192 195.679,124.426 197.833 C 124.661 199.987,124.914 202.725,124.990 203.917 C 125.065 205.108,125.327 208.183,125.572 210.750 C 125.816 213.317,126.240 217.854,126.512 220.833 C 127.026 226.437,127.362 229.116,127.647 229.865 C 127.817 230.312,128.230 230.474,131.083 231.213 C 133.754 231.905,137.019 232.839,139.108 233.510 C 139.946 233.780,140.777 234.000,140.953 234.000 C 141.130 234.000,141.832 234.190,142.512 234.423 C 143.193 234.655,144.200 234.947,144.750 235.073 C 145.986 235.354,147.966 235.892,149.833 236.454 C 150.612 236.689,151.662 236.976,152.167 237.092 C 152.671 237.209,153.526 237.460,154.068 237.652 C 154.609 237.843,155.176 238.000,155.328 238.000 C 155.480 238.000,156.270 238.225,157.083 238.500 C 157.897 238.775,158.680 238.998,158.823 238.997 C 158.966 238.995,159.833 239.216,160.750 239.488 C 161.667 239.761,163.317 240.223,164.417 240.516 C 165.517 240.809,167.133 241.262,168.008 241.524 C 168.883 241.786,169.682 242.000,169.784 242.000 C 169.886 242.000,170.658 242.225,171.500 242.500 C 172.342 242.775,173.149 243.000,173.295 243.000 C 173.440 243.000,174.277 243.219,175.155 243.487 C 176.527 243.905,178.763 244.505,181.250 245.120 C 182.386 245.402,184.511 246.002,186.175 246.512 C 187.051 246.781,187.914 247.000,188.094 247.000 C 188.274 247.000,188.833 247.151,189.336 247.335 C 189.839 247.519,190.813 247.786,191.500 247.928 C 192.188 248.070,193.310 248.370,193.995 248.593 C 194.680 248.817,195.411 249.000,195.619 249.000 C 195.826 249.000,196.798 249.225,197.777 249.500 C 199.997 250.123,200.542 250.123,202.640 249.500 C 203.565 249.225,204.445 249.000,204.594 249.000 C 204.744 249.000,205.627 248.782,206.558 248.515 C 207.489 248.249,208.550 247.959,208.917 247.872 C 209.726 247.681,211.778 247.097,213.583 246.545 C 214.317 246.321,215.329 246.043,215.833 245.927 C 216.338 245.812,217.350 245.548,218.083 245.341 C 218.817 245.135,220.242 244.742,221.250 244.468 C 222.258 244.195,223.721 243.781,224.500 243.548 C 225.279 243.316,226.217 243.073,226.583 243.008 C 226.950 242.943,227.887 242.694,228.667 242.454 C 232.354 241.320,233.460 241.000,233.697 241.000 C 233.838 241.000,234.545 240.808,235.268 240.574 C 235.992 240.340,236.921 240.087,237.333 240.011 C 237.746 239.935,238.758 239.672,239.583 239.426 C 240.408 239.180,241.871 238.753,242.833 238.477 C 243.796 238.201,245.300 237.756,246.175 237.488 C 247.051 237.219,247.876 237.000,248.009 237.001 C 248.141 237.001,248.963 236.784,249.833 236.519 C 251.689 235.953,253.809 235.352,254.750 235.125 C 255.117 235.036,256.129 234.746,257.000 234.481 C 257.871 234.215,258.696 233.999,258.833 233.999 C 258.971 234.000,259.758 233.784,260.583 233.519 C 262.045 233.050,263.935 232.491,267.500 231.474 C 272.987 229.908,272.425 230.370,272.742 227.167 C 272.882 225.746,273.224 222.408,273.502 219.750 C 273.780 217.092,274.005 214.573,274.003 214.153 C 274.002 213.733,274.225 211.352,274.500 208.861 C 274.775 206.370,275.000 203.973,275.000 203.534 C 275.000 203.095,275.225 200.680,275.500 198.167 C 275.775 195.653,276.001 193.181,276.003 192.674 C 276.004 192.166,276.195 190.137,276.426 188.167 C 276.657 186.196,276.917 183.571,277.002 182.333 C 277.088 181.096,277.347 178.396,277.578 176.333 C 277.809 174.271,277.997 172.208,277.997 171.750 C 277.996 171.292,278.219 168.667,278.492 165.917 C 278.765 163.167,279.062 159.979,279.151 158.833 C 279.345 156.328,279.863 150.789,280.443 145.000 C 280.677 142.662,280.934 139.775,281.015 138.583 C 281.095 137.392,281.230 135.817,281.315 135.083 C 281.497 133.506,281.837 129.904,282.500 122.500 C 282.767 119.521,283.147 115.358,283.345 113.250 C 283.542 111.142,283.775 108.442,283.861 107.250 C 283.948 106.058,284.239 102.871,284.509 100.167 C 284.780 97.462,285.001 94.837,285.001 94.333 C 285.002 93.829,285.194 91.729,285.428 89.667 C 285.663 87.604,285.916 84.942,285.992 83.750 C 286.067 82.558,286.324 79.521,286.562 77.000 C 286.967 72.709,287.518 66.402,288.344 56.583 C 288.700 52.342,288.724 49.823,288.408 49.719 C 288.295 49.682,288.158 50.605,288.025 52.289 C 287.911 53.734,287.713 56.079,287.586 57.500 C 287.458 58.921,287.304 60.796,287.242 61.667 C 287.180 62.538,287.109 63.362,287.083 63.500 C 287.058 63.637,286.987 64.387,286.927 65.167 C 286.796 66.852,285.456 82.076,284.821 89.083 C 284.738 90.000,284.558 92.138,284.421 93.833 C 284.285 95.529,284.025 98.469,283.844 100.365 C 283.663 102.262,283.433 104.925,283.333 106.282 C 283.233 107.639,283.123 108.938,283.089 109.167 C 283.054 109.396,282.982 110.108,282.928 110.750 C 282.874 111.392,282.607 114.429,282.334 117.500 C 282.062 120.571,281.721 124.471,281.577 126.167 C 281.433 127.862,281.209 130.375,281.080 131.750 C 280.740 135.351,280.683 136.005,280.495 138.417 C 280.403 139.608,280.145 142.533,279.923 144.917 C 279.701 147.300,279.474 149.850,279.418 150.583 C 279.362 151.317,279.210 153.042,279.082 154.417 C 278.663 158.892,278.352 162.389,278.249 163.790 C 278.194 164.545,278.122 165.299,278.090 165.465 C 278.058 165.632,277.983 166.439,277.922 167.259 C 277.862 168.079,277.710 169.837,277.583 171.167 C 277.250 174.678,276.879 178.813,276.583 182.333 C 276.440 184.029,276.177 186.917,275.998 188.750 C 275.818 190.583,275.561 193.471,275.426 195.167 C 275.290 196.862,275.032 199.825,274.851 201.750 C 274.670 203.675,274.476 205.887,274.420 206.667 C 274.364 207.446,274.287 208.346,274.247 208.667 C 274.184 209.179,273.639 215.147,273.424 217.667 C 273.382 218.171,273.237 219.596,273.102 220.833 C 272.968 222.071,272.815 223.721,272.761 224.500 C 272.412 229.619,272.928 229.198,263.667 231.918 C 262.521 232.255,260.608 232.820,259.417 233.174 C 258.225 233.528,255.862 234.202,254.167 234.672 C 252.471 235.142,250.746 235.631,250.333 235.760 C 249.921 235.888,248.758 236.215,247.750 236.487 C 244.945 237.243,241.886 238.085,240.500 238.484 C 239.813 238.681,238.875 238.946,238.417 239.072 C 236.376 239.634,233.743 240.355,231.667 240.920 C 230.429 241.257,228.657 241.750,227.729 242.016 C 226.801 242.282,225.489 242.644,224.812 242.821 C 224.136 242.997,222.871 243.340,222.000 243.582 C 219.314 244.329,213.815 245.817,210.083 246.807 C 208.708 247.171,206.983 247.633,206.250 247.832 C 204.669 248.263,201.358 249.131,200.417 249.362 C 199.632 249.554,199.014 249.473,197.043 248.921 C 194.200 248.123,190.563 247.133,189.000 246.731 C 188.129 246.507,187.079 246.216,186.667 246.084 C 186.254 245.953,185.204 245.654,184.333 245.420 C 180.525 244.396,179.616 244.148,177.333 243.506 C 176.004 243.133,173.679 242.484,172.167 242.064 C 170.654 241.644,168.817 241.127,168.083 240.915 C 167.350 240.703,165.925 240.303,164.917 240.026 C 161.923 239.204,157.042 237.841,155.167 237.304 C 154.204 237.029,152.517 236.552,151.417 236.245 C 148.610 235.462,143.457 234.029,142.167 233.673 C 141.571 233.508,140.108 233.098,138.917 232.762 C 137.725 232.425,135.813 231.887,134.667 231.566 C 133.521 231.245,131.908 230.791,131.083 230.558 C 130.258 230.325,129.215 230.043,128.766 229.933 C 127.736 229.680,127.783 229.834,127.429 225.583 C 127.269 223.658,126.921 219.721,126.656 216.833 C 126.392 213.946,126.060 210.271,125.919 208.667 C 125.779 207.063,125.439 203.275,125.166 200.250 C 124.892 197.225,124.591 193.775,124.496 192.583 C 124.402 191.392,124.182 188.917,124.008 187.083 C 123.833 185.250,123.571 182.400,123.426 180.750 C 123.280 179.100,122.941 175.313,122.673 172.333 C 122.404 169.354,122.134 166.279,122.073 165.500 C 122.011 164.721,121.941 163.971,121.917 163.833 C 121.893 163.696,121.823 162.908,121.762 162.083 C 121.701 161.258,121.544 159.458,121.413 158.083 C 120.928 152.992,120.677 150.213,120.579 148.833 C 120.523 148.054,120.300 145.542,120.083 143.250 C 119.866 140.958,119.642 138.483,119.585 137.750 C 119.528 137.017,119.187 133.117,118.827 129.083 C 118.467 125.050,118.093 120.850,117.997 119.750 C 117.900 118.650,117.675 116.138,117.496 114.167 C 116.463 102.792,115.814 95.466,115.583 92.583 C 115.459 91.025,115.091 86.787,114.765 83.167 C 114.224 77.155,113.314 66.740,113.062 63.667 C 113.005 62.979,112.938 62.303,112.913 62.163 C 112.888 62.024,112.817 61.162,112.755 60.247 C 112.694 59.332,112.539 57.458,112.412 56.083 C 112.284 54.708,112.129 52.702,112.067 51.625 C 111.958 49.718,111.708 49.096,111.388 49.931 M161.151 71.997 C 158.254 72.193,158.494 71.957,158.256 74.833 C 158.206 75.429,158.132 76.104,158.090 76.333 C 158.049 76.563,157.938 77.612,157.845 78.667 C 157.751 79.721,157.521 82.046,157.333 83.833 C 157.145 85.621,156.921 87.983,156.833 89.083 C 156.746 90.183,156.523 92.658,156.337 94.583 C 156.152 96.508,155.777 100.633,155.505 103.750 C 155.233 106.867,154.860 111.067,154.676 113.083 C 154.492 115.100,154.224 118.100,154.080 119.750 C 153.856 122.304,153.626 124.865,153.255 128.917 C 153.161 129.940,152.973 132.089,152.329 139.500 C 152.054 142.662,151.758 146.000,151.671 146.917 C 151.584 147.833,151.463 149.615,151.401 150.875 L 151.288 153.167 189.084 153.167 L 226.880 153.167 226.781 154.042 C 226.283 158.457,225.932 161.991,225.582 166.083 C 224.744 175.900,224.288 180.160,223.991 180.941 C 223.811 181.415,221.797 182.061,214.000 184.145 C 212.579 184.525,211.192 184.908,210.917 184.997 C 209.608 185.417,200.972 187.503,200.144 187.599 C 199.044 187.727,197.455 187.353,187.167 184.545 C 183.637 183.582,180.188 182.651,179.500 182.477 C 178.813 182.303,177.912 182.054,177.500 181.923 C 177.088 181.792,176.438 181.605,176.056 181.507 L 175.361 181.328 175.254 180.039 C 175.195 179.330,175.079 178.037,174.996 177.167 C 174.913 176.296,174.801 174.983,174.746 174.250 C 174.641 172.847,174.305 169.253,173.970 165.958 C 173.774 164.024,173.766 164.000,173.344 163.989 C 170.614 163.918,151.457 163.988,151.376 164.069 C 151.281 164.164,151.554 170.285,151.767 172.833 C 152.013 175.776,153.014 186.198,153.255 188.333 C 154.186 196.558,154.567 198.806,155.066 198.997 C 155.520 199.171,159.432 200.350,160.083 200.509 C 160.358 200.576,163.358 201.426,166.750 202.397 C 170.142 203.368,174.042 204.475,175.417 204.856 C 180.445 206.250,186.646 207.981,189.417 208.763 C 190.517 209.074,191.979 209.476,192.667 209.656 C 193.354 209.836,195.178 210.318,196.720 210.725 L 199.523 211.467 202.303 210.754 C 207.206 209.497,213.302 207.879,215.669 207.206 C 216.630 206.933,218.429 206.432,219.667 206.094 C 222.899 205.211,226.009 204.332,230.667 202.986 C 232.912 202.337,235.162 201.696,235.667 201.562 C 236.659 201.297,237.480 201.043,242.123 199.571 C 244.201 198.912,245.191 198.521,245.250 198.334 C 245.297 198.184,245.485 196.641,245.666 194.906 C 245.847 193.170,246.072 191.037,246.166 190.167 C 246.400 188.005,247.271 178.762,247.502 176.000 C 247.605 174.762,247.795 172.737,247.923 171.500 C 248.051 170.262,248.272 167.787,248.413 166.000 C 248.554 164.212,248.815 161.250,248.993 159.417 C 249.170 157.583,249.397 155.033,249.498 153.750 C 249.598 152.467,249.823 149.954,249.998 148.167 C 250.173 146.379,250.397 144.017,250.496 142.917 C 250.798 139.546,251.325 134.156,251.490 132.750 C 251.761 130.441,254.703 130.592,209.875 130.611 L 176.000 130.626 176.005 130.188 C 176.014 129.373,176.323 125.600,176.661 122.167 C 176.847 120.287,177.150 117.063,177.335 115.000 C 177.521 112.938,177.859 109.412,178.086 107.167 C 178.313 104.921,178.577 102.221,178.671 101.167 C 178.765 100.112,178.924 98.599,179.025 97.803 L 179.207 96.355 180.229 96.267 C 180.790 96.219,182.750 96.138,184.583 96.088 C 186.417 96.038,189.454 95.944,191.333 95.879 C 195.829 95.724,199.676 95.722,202.750 95.873 C 204.125 95.941,206.900 96.036,208.917 96.085 C 213.460 96.195,217.014 96.324,218.000 96.416 C 218.412 96.454,219.688 96.532,220.833 96.589 C 222.808 96.688,226.058 97.080,226.340 97.254 C 226.662 97.453,227.839 107.833,228.551 116.748 L 228.750 119.246 229.250 119.498 C 229.678 119.714,231.334 119.758,240.731 119.802 L 251.713 119.855 251.612 119.219 C 251.557 118.869,251.466 117.946,251.410 117.167 C 251.354 116.388,251.202 114.775,251.072 113.583 C 250.942 112.392,250.686 109.617,250.501 107.417 C 250.317 105.217,250.056 102.329,249.921 101.000 C 249.786 99.671,249.563 97.157,249.426 95.413 C 249.288 93.669,249.064 91.157,248.928 89.829 C 248.791 88.502,248.600 86.329,248.502 85.000 C 248.404 83.671,248.212 81.458,248.075 80.083 C 247.938 78.708,247.719 76.356,247.588 74.856 C 247.458 73.356,247.305 72.083,247.249 72.027 C 247.097 71.874,163.396 71.845,161.151 71.997 " stroke="none" fill="#f3f3f3" fill-rule="evenodd"/><path id="path1" d="M112.087 49.708 C 112.124 50.006,112.192 51.000,112.240 51.917 C 112.395 54.891,112.818 60.340,113.153 63.667 C 113.333 65.454,113.528 67.704,113.587 68.667 C 113.645 69.629,113.870 72.292,114.087 74.583 C 114.304 76.875,114.564 79.912,114.664 81.333 C 114.764 82.754,114.955 84.929,115.087 86.167 C 115.220 87.404,115.483 90.329,115.671 92.667 C 115.859 95.004,116.116 97.892,116.242 99.083 C 116.369 100.275,116.519 101.962,116.577 102.833 C 116.636 103.704,116.862 106.254,117.081 108.500 C 117.301 110.746,117.526 113.296,117.582 114.167 C 117.638 115.037,117.864 117.587,118.085 119.833 C 118.306 122.079,118.533 124.667,118.590 125.583 C 118.647 126.500,118.837 128.655,119.012 130.372 C 119.187 132.088,119.483 135.426,119.669 137.788 C 119.856 140.151,120.079 142.683,120.166 143.417 C 120.253 144.150,120.441 146.212,120.584 148.000 C 120.727 149.787,120.877 151.512,120.916 151.833 C 120.955 152.154,121.033 152.942,121.089 153.583 C 121.145 154.225,121.219 154.862,121.254 155.000 C 121.288 155.137,121.399 156.450,121.499 157.917 C 121.599 159.383,121.864 162.421,122.086 164.667 C 122.309 166.912,122.567 169.839,122.659 171.171 C 122.752 172.502,122.975 175.015,123.155 176.754 C 123.335 178.494,123.566 181.079,123.668 182.500 C 123.770 183.921,123.958 186.058,124.086 187.250 C 124.215 188.442,124.476 191.367,124.668 193.750 C 124.859 196.133,125.045 198.271,125.082 198.500 C 125.198 199.226,125.475 202.190,125.580 203.833 C 125.636 204.704,125.828 206.804,126.007 208.500 C 126.186 210.196,126.445 213.079,126.582 214.908 C 126.719 216.737,126.980 219.699,127.162 221.491 C 127.344 223.284,127.564 225.791,127.651 227.064 C 127.844 229.870,127.483 229.542,131.583 230.632 C 132.841 230.967,137.432 232.256,140.000 232.995 C 140.871 233.246,142.483 233.697,143.583 233.996 C 145.549 234.532,148.532 235.372,150.667 235.990 C 153.335 236.763,155.002 237.230,156.083 237.507 C 156.725 237.671,157.662 237.929,158.167 238.079 C 158.671 238.229,159.608 238.492,160.250 238.663 C 162.444 239.247,164.417 239.799,166.833 240.503 C 168.162 240.891,169.625 241.302,170.083 241.417 C 170.934 241.631,172.533 242.073,176.083 243.077 C 177.183 243.388,179.621 244.065,181.500 244.583 C 183.379 245.100,185.704 245.742,186.667 246.010 C 187.629 246.278,189.204 246.716,190.167 246.984 C 191.129 247.251,192.179 247.522,192.500 247.585 C 192.821 247.649,193.646 247.879,194.333 248.098 C 195.021 248.317,195.921 248.566,196.333 248.650 C 196.746 248.735,197.620 248.963,198.277 249.158 L 199.470 249.511 202.777 248.655 C 204.595 248.184,206.871 247.590,207.833 247.334 C 208.796 247.078,210.446 246.641,211.500 246.363 C 212.554 246.084,214.129 245.658,215.000 245.416 C 217.258 244.789,219.329 244.232,221.250 243.736 C 222.167 243.499,223.479 243.135,224.167 242.927 C 224.854 242.719,225.867 242.434,226.417 242.295 C 227.691 241.973,232.577 240.632,234.750 240.009 C 235.667 239.746,237.279 239.296,238.333 239.009 C 239.387 238.722,241.037 238.267,242.000 237.997 C 242.963 237.728,244.725 237.241,245.917 236.915 C 247.108 236.590,248.571 236.180,249.167 236.004 C 249.762 235.829,251.225 235.416,252.417 235.087 C 253.608 234.758,255.183 234.307,255.917 234.086 C 256.650 233.865,257.475 233.635,257.750 233.575 C 258.025 233.516,258.962 233.252,259.833 232.989 C 260.704 232.725,262.467 232.200,263.750 231.822 C 268.499 230.421,271.947 229.157,272.218 228.718 C 272.272 228.632,272.361 228.041,272.416 227.406 C 272.472 226.770,272.735 224.000,273.001 221.250 C 273.268 218.500,273.528 215.612,273.579 214.833 C 273.684 213.262,273.809 211.762,273.921 210.750 C 274.268 207.622,274.551 204.542,275.418 194.500 C 275.819 189.844,275.931 188.673,276.086 187.500 C 276.129 187.179,276.317 184.892,276.505 182.417 C 276.693 179.942,276.876 177.804,276.912 177.667 C 276.949 177.529,277.025 176.779,277.083 176.000 C 277.141 175.221,277.218 174.471,277.254 174.333 C 277.290 174.196,277.399 172.846,277.498 171.333 C 277.596 169.821,277.824 167.158,278.004 165.417 C 278.184 163.675,278.445 160.787,278.585 159.000 C 278.863 155.435,278.982 154.133,279.085 153.500 C 279.171 152.973,279.272 151.855,279.585 148.000 C 279.722 146.304,279.942 143.829,280.073 142.500 C 280.204 141.171,280.357 139.408,280.414 138.583 C 280.470 137.758,280.548 136.746,280.587 136.333 C 280.626 135.921,280.773 134.308,280.913 132.750 C 281.053 131.192,281.203 129.692,281.246 129.417 C 281.290 129.142,281.406 127.717,281.504 126.250 C 281.602 124.783,281.863 121.746,282.086 119.500 C 282.308 117.254,282.533 114.667,282.587 113.750 C 282.674 112.279,282.818 110.684,283.092 108.167 C 283.179 107.364,283.789 100.401,284.332 94.000 C 284.514 91.846,284.813 88.546,284.996 86.667 C 285.178 84.787,285.444 81.675,285.587 79.750 C 285.730 77.825,285.954 75.275,286.085 74.083 C 286.216 72.892,286.404 70.717,286.503 69.250 C 286.602 67.783,286.862 64.708,287.082 62.417 C 287.302 60.125,287.525 57.575,287.578 56.750 C 287.762 53.881,287.850 52.747,287.926 52.250 C 287.968 51.975,288.038 51.169,288.080 50.458 L 288.157 49.167 200.089 49.167 L 112.021 49.167 112.087 49.708 M272.008 63.527 C 272.160 63.749,271.951 68.281,271.738 69.393 C 271.706 69.563,271.636 70.501,271.583 71.476 C 271.478 73.421,271.192 77.245,271.082 78.167 C 271.044 78.487,270.966 79.275,270.909 79.917 C 270.852 80.558,270.775 81.346,270.738 81.667 C 270.701 81.987,270.632 82.850,270.584 83.583 C 270.371 86.862,270.303 87.782,270.241 88.250 C 270.204 88.525,270.134 89.200,270.086 89.750 C 270.037 90.300,269.958 91.125,269.910 91.583 C 269.677 93.811,269.681 93.759,269.410 97.667 C 269.356 98.446,269.288 99.271,269.259 99.500 C 269.209 99.898,269.057 101.391,268.901 103.000 C 268.862 103.412,268.793 104.050,268.749 104.417 C 268.706 104.783,268.631 105.683,268.585 106.417 C 268.501 107.724,268.310 110.258,268.244 110.917 C 268.226 111.100,268.159 111.813,268.094 112.500 C 268.030 113.188,267.950 113.975,267.916 114.250 C 267.726 115.790,267.596 117.284,267.409 120.083 C 267.347 121.000,267.276 121.862,267.250 122.000 C 267.225 122.138,267.153 122.813,267.092 123.500 C 266.948 125.117,266.866 125.928,266.762 126.750 C 266.716 127.117,266.599 128.542,266.503 129.917 C 266.342 132.230,266.262 133.138,266.084 134.667 C 266.047 134.987,265.970 135.737,265.913 136.333 C 265.857 136.929,265.782 137.604,265.747 137.833 C 265.712 138.063,265.601 139.487,265.500 141.000 C 265.399 142.512,265.288 143.938,265.253 144.167 C 265.191 144.576,265.079 145.666,264.910 147.514 C 264.863 148.026,264.794 148.603,264.757 148.796 C 264.720 148.990,264.645 149.809,264.591 150.616 C 264.438 152.905,264.279 154.772,264.091 156.495 C 264.045 156.910,263.964 157.760,263.909 158.384 C 263.855 159.008,263.782 159.665,263.748 159.844 C 263.713 160.024,263.642 160.788,263.590 161.543 C 263.358 164.869,263.246 166.140,263.086 167.250 C 263.046 167.525,262.964 168.387,262.903 169.167 C 262.843 169.946,262.768 170.627,262.738 170.679 C 262.707 170.732,262.638 171.557,262.583 172.513 C 262.528 173.468,262.414 174.887,262.331 175.667 C 262.247 176.446,262.135 177.533,262.082 178.083 C 261.969 179.262,261.844 180.387,261.750 181.083 C 261.713 181.358,261.603 182.746,261.506 184.167 C 261.409 185.588,261.296 186.938,261.256 187.167 C 261.216 187.396,261.142 188.015,261.092 188.542 C 261.041 189.069,260.959 189.931,260.908 190.458 C 260.858 190.985,260.786 191.642,260.749 191.917 C 260.712 192.192,260.645 192.904,260.599 193.500 C 260.318 197.175,260.256 197.884,260.109 199.083 C 259.857 201.140,259.640 203.316,259.411 206.083 C 259.310 207.307,259.150 208.939,259.078 209.500 C 259.048 209.729,258.981 210.329,258.929 210.833 C 258.877 211.338,258.797 211.938,258.752 212.167 C 258.706 212.396,258.624 213.258,258.568 214.083 C 258.412 216.404,258.205 217.706,257.967 217.857 C 257.715 218.016,253.913 219.225,251.250 219.993 C 250.242 220.284,249.192 220.596,248.917 220.688 C 248.642 220.779,248.236 220.890,248.016 220.935 C 247.795 220.979,247.486 221.085,247.329 221.169 C 247.091 221.296,246.497 221.458,245.250 221.735 C 245.158 221.755,244.521 221.941,243.833 222.148 C 240.055 223.286,239.366 223.484,238.833 223.584 C 238.271 223.689,237.199 223.993,233.833 225.000 C 232.510 225.396,231.941 225.547,231.000 225.749 C 230.954 225.759,230.467 225.905,229.917 226.074 C 229.367 226.242,228.654 226.440,228.333 226.512 C 228.012 226.585,227.487 226.720,227.167 226.812 C 225.122 227.400,222.100 228.230,221.250 228.437 C 220.139 228.708,220.026 228.740,219.667 228.882 C 219.330 229.016,218.282 229.308,217.167 229.578 C 216.662 229.700,215.594 229.990,214.792 230.222 C 213.990 230.454,213.333 230.617,213.333 230.583 C 213.333 230.549,212.707 230.733,211.941 230.992 C 211.175 231.251,210.225 231.517,209.830 231.584 C 209.435 231.651,208.586 231.884,207.943 232.103 C 207.301 232.321,206.624 232.500,206.440 232.500 C 206.256 232.500,205.688 232.643,205.178 232.819 C 204.667 232.994,203.725 233.258,203.083 233.405 C 202.442 233.552,201.630 233.760,201.279 233.867 C 200.490 234.108,200.347 233.941,200.319 232.750 C 200.308 232.292,200.270 231.467,200.234 230.917 C 200.199 230.367,200.146 225.829,200.118 220.833 L 200.066 211.750 198.991 211.468 C 198.400 211.313,196.867 210.879,195.583 210.503 C 194.300 210.126,192.932 209.749,192.544 209.665 C 192.155 209.580,191.330 209.359,190.710 209.172 C 189.529 208.818,187.282 208.212,185.167 207.679 C 184.479 207.505,183.242 207.167,182.417 206.928 C 178.755 205.864,174.779 204.740,173.833 204.502 C 173.421 204.398,172.596 204.170,172.000 203.996 C 171.404 203.822,169.717 203.340,168.250 202.925 C 166.783 202.510,164.683 201.901,163.583 201.572 C 162.483 201.243,161.191 200.874,160.711 200.752 C 160.231 200.631,159.181 200.331,158.377 200.086 C 157.574 199.841,156.413 199.488,155.797 199.301 C 154.542 198.921,154.626 199.055,154.263 196.833 C 153.882 194.493,153.853 194.283,153.592 191.833 C 153.460 190.596,153.201 188.308,153.017 186.750 C 152.832 185.192,152.600 182.867,152.501 181.583 C 152.401 180.300,152.209 178.200,152.072 176.917 C 151.693 173.346,151.336 167.971,151.335 165.792 L 151.333 163.833 162.583 163.833 C 170.493 163.833,173.833 163.887,173.833 164.012 C 173.833 164.111,173.977 165.405,174.153 166.887 C 174.328 168.370,174.521 170.371,174.582 171.333 C 174.642 172.296,174.874 174.883,175.096 177.083 C 175.318 179.283,175.500 181.137,175.500 181.202 C 175.500 181.267,175.819 181.401,176.208 181.499 C 176.598 181.597,178.229 182.044,179.833 182.493 C 181.438 182.941,183.762 183.576,185.000 183.905 C 186.237 184.234,187.813 184.661,188.500 184.856 C 189.188 185.050,190.425 185.380,191.250 185.588 C 192.075 185.797,193.762 186.242,195.000 186.578 C 197.845 187.349,199.262 187.648,199.464 187.518 C 199.625 187.415,199.759 186.305,199.937 183.583 C 200.081 181.371,200.119 153.693,199.978 153.464 C 199.886 153.316,193.966 153.268,175.595 153.265 L 151.333 153.262 151.333 151.835 C 151.333 150.377,151.576 147.128,152.149 140.917 C 152.327 138.992,152.521 136.629,152.580 135.667 C 152.640 134.704,152.831 132.567,153.004 130.917 C 153.177 129.267,153.436 126.304,153.580 124.333 C 153.724 122.362,153.875 120.525,153.916 120.250 C 154.019 119.549,154.463 114.823,154.660 112.333 C 154.751 111.188,154.899 109.575,154.990 108.750 C 155.081 107.925,155.307 105.435,155.493 103.216 C 155.678 100.998,155.938 98.148,156.070 96.883 C 156.203 95.618,156.395 93.458,156.497 92.083 C 156.600 90.708,156.862 87.858,157.080 85.750 C 157.298 83.642,157.527 81.246,157.589 80.427 C 157.777 77.935,158.414 72.596,158.548 72.385 C 158.667 72.198,158.962 72.135,160.833 71.895 C 161.246 71.842,170.208 71.762,180.750 71.718 C 191.292 71.673,199.954 71.600,199.999 71.556 C 200.044 71.511,200.091 69.662,200.103 67.446 C 200.116 65.230,200.135 63.413,200.147 63.408 C 200.359 63.315,271.944 63.433,272.008 63.527 M198.819 95.729 C 198.781 95.763,196.500 95.840,193.750 95.899 C 191.000 95.958,188.188 96.041,187.500 96.083 C 186.813 96.125,185.012 96.201,183.500 96.252 C 179.541 96.384,179.361 96.418,179.258 97.060 C 179.012 98.594,178.806 100.373,178.581 102.917 C 178.443 104.475,178.255 106.313,178.165 107.000 C 178.074 107.688,177.848 110.050,177.662 112.250 C 177.477 114.450,177.218 117.225,177.087 118.417 C 176.956 119.608,176.803 121.258,176.747 122.083 C 176.691 122.908,176.500 125.095,176.323 126.942 C 176.145 128.789,176.000 130.346,176.000 130.400 C 176.000 130.455,181.419 130.500,188.042 130.500 L 200.084 130.500 200.063 113.208 C 200.051 103.698,200.032 95.860,200.021 95.792 C 200.000 95.667,198.950 95.612,198.819 95.729 " stroke="none" fill="#e4a424" fill-rule="evenodd"/><path id="path2" d="M156.055 49.125 C 180.332 49.148,220.007 49.148,244.222 49.125 C 268.437 49.102,248.575 49.083,200.083 49.083 C 151.592 49.083,131.779 49.102,156.055 49.125 M112.056 50.667 C 112.056 51.354,112.085 51.635,112.121 51.292 C 112.157 50.948,112.157 50.385,112.121 50.042 C 112.085 49.698,112.056 49.979,112.056 50.667 M288.039 51.167 C 288.039 51.487,288.073 51.619,288.115 51.458 C 288.157 51.298,288.157 51.035,288.115 50.875 C 288.073 50.715,288.039 50.846,288.039 51.167 M287.875 52.917 C 287.877 53.283,287.911 53.414,287.951 53.206 C 287.991 52.999,287.990 52.699,287.948 52.540 C 287.906 52.380,287.874 52.550,287.875 52.917 M112.217 53.500 C 112.217 54.004,112.248 54.210,112.286 53.958 C 112.324 53.706,112.324 53.294,112.286 53.042 C 112.248 52.790,112.217 52.996,112.217 53.500 M287.714 54.917 C 287.716 55.375,287.748 55.543,287.786 55.289 C 287.825 55.036,287.824 54.661,287.784 54.456 C 287.744 54.251,287.713 54.458,287.714 54.917 M112.383 55.333 C 112.383 55.837,112.415 56.044,112.453 55.792 C 112.491 55.540,112.491 55.127,112.453 54.875 C 112.415 54.623,112.383 54.829,112.383 55.333 M113.039 63.333 C 113.039 63.654,113.073 63.785,113.115 63.625 C 113.157 63.465,113.157 63.202,113.115 63.042 C 113.073 62.881,113.039 63.012,113.039 63.333 M200.146 63.491 C 200.135 63.542,200.107 65.308,200.084 67.417 C 200.061 69.525,200.033 71.343,200.021 71.458 C 200.004 71.621,196.476 71.674,183.292 71.708 C 173.397 71.734,179.122 71.771,197.333 71.799 C 225.289 71.842,247.171 71.966,247.301 72.083 C 247.328 72.108,247.458 73.356,247.588 74.856 C 247.719 76.356,247.938 78.708,248.075 80.083 C 248.212 81.458,248.404 83.671,248.502 85.000 C 248.600 86.329,248.791 88.502,248.928 89.829 C 249.064 91.157,249.288 93.669,249.426 95.413 C 249.563 97.157,249.786 99.671,249.921 101.000 C 250.056 102.329,250.317 105.217,250.501 107.417 C 250.686 109.617,250.942 112.392,251.072 113.583 C 251.202 114.775,251.354 116.388,251.410 117.167 C 251.466 117.946,251.557 118.869,251.612 119.219 L 251.713 119.855 240.731 119.802 C 231.334 119.758,229.678 119.714,229.250 119.498 L 228.750 119.246 228.551 116.748 C 227.839 107.833,226.662 97.453,226.340 97.254 C 226.058 97.080,222.808 96.688,220.833 96.589 C 219.688 96.532,218.412 96.454,218.000 96.416 C 217.014 96.324,213.460 96.195,208.917 96.085 C 204.521 95.979,200.282 95.815,200.166 95.747 C 200.120 95.720,200.083 103.547,200.083 113.141 L 200.083 130.583 220.583 130.608 C 246.287 130.638,250.984 130.739,251.501 131.272 C 251.578 131.351,251.572 132.017,251.488 132.750 C 251.322 134.185,250.787 139.667,250.496 142.917 C 250.397 144.017,250.173 146.379,249.998 148.167 C 249.823 149.954,249.598 152.467,249.498 153.750 C 249.397 155.033,249.170 157.583,248.993 159.417 C 248.815 161.250,248.554 164.212,248.413 166.000 C 248.272 167.787,248.051 170.262,247.923 171.500 C 247.795 172.737,247.605 174.762,247.502 176.000 C 247.271 178.762,246.400 188.005,246.166 190.167 C 246.072 191.037,245.847 193.170,245.666 194.906 C 245.485 196.641,245.297 198.184,245.250 198.334 C 245.191 198.521,244.201 198.912,242.123 199.571 C 237.480 201.043,236.659 201.297,235.667 201.562 C 235.162 201.696,232.912 202.337,230.667 202.986 C 226.009 204.332,222.899 205.211,219.667 206.094 C 218.429 206.432,216.630 206.933,215.669 207.206 C 213.160 207.919,206.885 209.583,202.667 210.654 C 199.291 211.510,199.321 211.500,199.740 211.656 C 200.054 211.773,200.066 212.045,200.117 220.847 C 200.146 225.835,200.199 230.367,200.234 230.917 C 200.270 231.467,200.308 232.292,200.319 232.750 C 200.347 233.941,200.490 234.108,201.279 233.867 C 201.630 233.760,202.442 233.552,203.083 233.405 C 203.725 233.258,204.667 232.994,205.178 232.819 C 205.688 232.643,206.256 232.500,206.440 232.500 C 206.624 232.500,207.301 232.321,207.943 232.103 C 208.586 231.884,209.435 231.651,209.830 231.584 C 210.225 231.517,211.175 231.251,211.941 230.992 C 212.707 230.733,213.333 230.549,213.333 230.583 C 213.333 230.617,213.990 230.454,214.792 230.222 C 215.594 229.990,216.662 229.700,217.167 229.578 C 218.282 229.308,219.330 229.016,219.667 228.882 C 220.026 228.740,220.139 228.708,221.250 228.437 C 222.100 228.230,225.122 227.400,227.167 226.812 C 227.487 226.720,228.012 226.585,228.333 226.512 C 228.654 226.440,229.367 226.242,229.917 226.074 C 230.467 225.905,230.954 225.759,231.000 225.749 C 231.941 225.547,232.510 225.396,233.833 225.000 C 237.199 223.993,238.271 223.689,238.833 223.584 C 239.366 223.484,240.055 223.286,243.833 222.148 C 244.521 221.941,245.158 221.755,245.250 221.735 C 246.497 221.458,247.091 221.296,247.329 221.169 C 247.486 221.085,247.795 220.979,248.016 220.935 C 248.236 220.890,248.642 220.779,248.917 220.688 C 249.192 220.596,250.242 220.284,251.250 219.993 C 253.913 219.225,257.715 218.016,257.967 217.857 C 258.205 217.706,258.412 216.404,258.568 214.083 C 258.624 213.258,258.706 212.396,258.752 212.167 C 258.797 211.938,258.877 211.338,258.929 210.833 C 258.981 210.329,259.048 209.729,259.078 209.500 C 259.150 208.939,259.310 207.307,259.411 206.083 C 259.640 203.316,259.857 201.140,260.109 199.083 C 260.256 197.884,260.318 197.175,260.599 193.500 C 260.645 192.904,260.712 192.192,260.749 191.917 C 260.786 191.642,260.858 190.985,260.908 190.458 C 260.959 189.931,261.041 189.069,261.092 188.542 C 261.142 188.015,261.216 187.396,261.256 187.167 C 261.296 186.938,261.409 185.588,261.506 184.167 C 261.603 182.746,261.713 181.358,261.750 181.083 C 261.844 180.387,261.969 179.262,262.082 178.083 C 262.135 177.533,262.247 176.446,262.331 175.667 C 262.414 174.887,262.528 173.468,262.583 172.513 C 262.638 171.557,262.707 170.732,262.738 170.679 C 262.768 170.627,262.843 169.946,262.903 169.167 C 262.964 168.387,263.046 167.525,263.086 167.250 C 263.246 166.140,263.358 164.869,263.590 161.543 C 263.642 160.788,263.713 160.024,263.748 159.844 C 263.782 159.665,263.855 159.008,263.909 158.384 C 263.964 157.760,264.045 156.910,264.091 156.495 C 264.279 154.772,264.438 152.905,264.591 150.616 C 264.645 149.809,264.720 148.990,264.757 148.796 C 264.794 148.603,264.863 148.026,264.910 147.514 C 265.079 145.666,265.191 144.576,265.253 144.167 C 265.288 143.938,265.399 142.512,265.500 141.000 C 265.601 139.487,265.712 138.063,265.747 137.833 C 265.782 137.604,265.857 136.929,265.913 136.333 C 265.970 135.737,266.047 134.987,266.084 134.667 C 266.262 133.138,266.342 132.230,266.503 129.917 C 266.599 128.542,266.716 127.117,266.762 126.750 C 266.866 125.928,266.948 125.117,267.092 123.500 C 267.153 122.813,267.225 122.138,267.250 122.000 C 267.276 121.862,267.347 121.000,267.409 120.083 C 267.596 117.284,267.726 115.790,267.916 114.250 C 267.950 113.975,268.030 113.188,268.094 112.500 C 268.159 111.813,268.226 111.100,268.244 110.917 C 268.310 110.258,268.501 107.724,268.585 106.417 C 268.631 105.683,268.706 104.783,268.749 104.417 C 268.793 104.050,268.862 103.412,268.901 103.000 C 269.057 101.391,269.209 99.898,269.259 99.500 C 269.288 99.271,269.356 98.446,269.410 97.667 C 269.681 93.759,269.677 93.811,269.910 91.583 C 269.958 91.125,270.037 90.300,270.086 89.750 C 270.134 89.200,270.204 88.525,270.241 88.250 C 270.303 87.782,270.371 86.862,270.584 83.583 C 270.632 82.850,270.701 81.987,270.738 81.667 C 270.775 81.346,270.852 80.558,270.909 79.917 C 270.966 79.275,271.044 78.487,271.082 78.167 C 271.192 77.245,271.478 73.421,271.583 71.476 C 271.636 70.501,271.706 69.563,271.738 69.393 C 271.951 68.281,272.160 63.749,272.008 63.527 C 271.907 63.379,200.179 63.343,200.146 63.491 M113.212 65.333 C 113.212 65.746,113.245 65.915,113.284 65.708 C 113.324 65.502,113.324 65.165,113.284 64.958 C 113.245 64.752,113.212 64.921,113.212 65.333 M286.717 66.667 C 286.717 67.171,286.748 67.377,286.786 67.125 C 286.824 66.873,286.824 66.460,286.786 66.208 C 286.748 65.956,286.717 66.162,286.717 66.667 M113.385 67.083 C 113.386 67.633,113.417 67.838,113.454 67.539 C 113.491 67.239,113.490 66.789,113.452 66.539 C 113.414 66.288,113.384 66.533,113.385 67.083 M286.545 68.667 C 286.545 69.079,286.578 69.248,286.618 69.042 C 286.657 68.835,286.657 68.498,286.618 68.292 C 286.578 68.085,286.545 68.254,286.545 68.667 M113.542 69.083 C 113.544 69.450,113.578 69.580,113.618 69.373 C 113.658 69.166,113.656 68.866,113.615 68.706 C 113.573 68.547,113.540 68.717,113.542 69.083 M161.708 71.953 C 161.960 71.991,162.373 71.991,162.625 71.953 C 162.877 71.915,162.671 71.883,162.167 71.883 C 161.662 71.883,161.456 71.915,161.708 71.953 M114.214 77.083 C 114.216 77.542,114.248 77.709,114.286 77.456 C 114.325 77.203,114.324 76.828,114.284 76.623 C 114.244 76.418,114.213 76.625,114.214 77.083 M285.714 78.250 C 285.716 78.708,285.748 78.876,285.786 78.623 C 285.825 78.369,285.824 77.994,285.784 77.789 C 285.744 77.584,285.713 77.792,285.714 78.250 M114.381 78.750 C 114.382 79.208,114.415 79.376,114.453 79.123 C 114.491 78.869,114.490 78.494,114.451 78.289 C 114.411 78.084,114.380 78.292,114.381 78.750 M157.714 79.250 C 157.716 79.708,157.748 79.876,157.786 79.623 C 157.825 79.369,157.824 78.994,157.784 78.789 C 157.744 78.584,157.713 78.792,157.714 79.250 M285.542 80.250 C 285.544 80.617,285.578 80.747,285.618 80.540 C 285.658 80.332,285.656 80.032,285.615 79.873 C 285.573 79.714,285.540 79.883,285.542 80.250 M114.542 80.750 C 114.544 81.117,114.578 81.247,114.618 81.040 C 114.658 80.832,114.656 80.532,114.615 80.373 C 114.573 80.214,114.540 80.383,114.542 80.750 M157.539 80.833 C 157.539 81.154,157.573 81.285,157.615 81.125 C 157.657 80.965,157.657 80.702,157.615 80.542 C 157.573 80.381,157.539 80.512,157.539 80.833 M115.205 88.167 C 115.205 88.487,115.240 88.619,115.282 88.458 C 115.323 88.298,115.323 88.035,115.282 87.875 C 115.240 87.715,115.205 87.846,115.205 88.167 M156.714 89.583 C 156.716 90.042,156.748 90.209,156.786 89.956 C 156.825 89.703,156.824 89.328,156.784 89.123 C 156.744 88.918,156.713 89.125,156.714 89.583 M284.705 89.500 C 284.705 89.821,284.740 89.952,284.782 89.792 C 284.823 89.631,284.823 89.369,284.782 89.208 C 284.740 89.048,284.705 89.179,284.705 89.500 M115.539 92.167 C 115.539 92.487,115.573 92.619,115.615 92.458 C 115.657 92.298,115.657 92.035,115.615 91.875 C 115.573 91.715,115.539 91.846,115.539 92.167 M115.709 94.250 C 115.711 94.617,115.745 94.747,115.785 94.540 C 115.824 94.332,115.823 94.032,115.781 93.873 C 115.739 93.714,115.707 93.883,115.709 94.250 M196.464 95.790 C 196.948 95.824,197.698 95.823,198.131 95.789 C 198.563 95.755,198.167 95.727,197.250 95.728 C 196.333 95.728,195.980 95.756,196.464 95.790 M191.288 95.954 C 191.584 95.990,192.109 95.991,192.455 95.955 C 192.800 95.919,192.558 95.889,191.917 95.888 C 191.275 95.887,190.992 95.917,191.288 95.954 M185.955 96.120 C 186.250 96.157,186.775 96.158,187.121 96.122 C 187.467 96.086,187.225 96.055,186.583 96.055 C 185.942 96.054,185.659 96.083,185.955 96.120 M179.708 96.287 C 179.275 96.341,179.171 96.427,179.186 96.719 C 179.200 96.984,179.226 97.007,179.279 96.802 C 179.357 96.509,180.041 96.381,182.083 96.279 C 182.721 96.248,182.570 96.228,181.667 96.225 C 180.887 96.222,180.006 96.250,179.708 96.287 M179.039 97.833 C 179.039 98.154,179.073 98.285,179.115 98.125 C 179.157 97.965,179.157 97.702,179.115 97.542 C 179.073 97.381,179.039 97.513,179.039 97.833 M116.209 99.583 C 116.211 99.950,116.245 100.080,116.285 99.873 C 116.324 99.666,116.323 99.366,116.281 99.206 C 116.239 99.047,116.207 99.217,116.209 99.583 M116.375 101.250 C 116.377 101.617,116.411 101.747,116.451 101.540 C 116.491 101.332,116.490 101.032,116.448 100.873 C 116.406 100.714,116.374 100.883,116.375 101.250 M116.705 105.667 C 116.705 105.987,116.740 106.119,116.782 105.958 C 116.823 105.798,116.823 105.535,116.782 105.375 C 116.740 105.215,116.705 105.346,116.705 105.667 M283.205 107.000 C 283.205 107.321,283.240 107.452,283.282 107.292 C 283.323 107.131,283.323 106.869,283.282 106.708 C 283.240 106.548,283.205 106.679,283.205 107.000 M116.872 107.333 C 116.872 107.654,116.906 107.785,116.948 107.625 C 116.990 107.465,116.990 107.202,116.948 107.042 C 116.906 106.881,116.872 107.013,116.872 107.333 M117.039 109.000 C 117.039 109.321,117.073 109.452,117.115 109.292 C 117.157 109.131,117.157 108.869,117.115 108.708 C 117.073 108.548,117.039 108.679,117.039 109.000 M282.872 110.333 C 282.872 110.654,282.906 110.785,282.948 110.625 C 282.990 110.465,282.990 110.202,282.948 110.042 C 282.906 109.881,282.872 110.013,282.872 110.333 M117.214 110.917 C 117.216 111.375,117.248 111.543,117.286 111.289 C 117.325 111.036,117.324 110.661,117.284 110.456 C 117.244 110.251,117.213 110.458,117.214 110.917 M154.712 111.500 C 154.712 111.912,154.745 112.081,154.784 111.875 C 154.824 111.669,154.824 111.331,154.784 111.125 C 154.745 110.919,154.712 111.087,154.712 111.500 M282.717 112.167 C 282.717 112.671,282.748 112.877,282.786 112.625 C 282.824 112.373,282.824 111.960,282.786 111.708 C 282.748 111.456,282.717 111.662,282.717 112.167 M117.381 112.583 C 117.382 113.042,117.415 113.209,117.453 112.956 C 117.491 112.703,117.490 112.328,117.451 112.123 C 117.411 111.918,117.380 112.125,117.381 112.583 M177.539 112.833 C 177.539 113.154,177.573 113.285,177.615 113.125 C 177.657 112.965,177.657 112.702,177.615 112.542 C 177.573 112.381,177.539 112.513,177.539 112.833 M154.205 117.500 C 154.205 117.821,154.240 117.952,154.282 117.792 C 154.323 117.631,154.323 117.369,154.282 117.208 C 154.240 117.048,154.205 117.179,154.205 117.500 M154.042 119.250 C 154.044 119.617,154.078 119.747,154.118 119.540 C 154.158 119.332,154.156 119.032,154.115 118.873 C 154.073 118.714,154.040 118.883,154.042 119.250 M118.214 122.250 C 118.216 122.708,118.248 122.876,118.286 122.623 C 118.325 122.369,118.324 121.994,118.284 121.789 C 118.244 121.584,118.213 121.792,118.214 122.250 M153.718 122.750 C 153.719 123.300,153.750 123.505,153.787 123.205 C 153.825 122.906,153.824 122.456,153.786 122.205 C 153.748 121.955,153.717 122.200,153.718 122.750 M281.717 123.667 C 281.717 124.171,281.748 124.377,281.786 124.125 C 281.824 123.873,281.824 123.460,281.786 123.208 C 281.748 122.956,281.717 123.162,281.717 123.667 M176.545 123.667 C 176.545 124.079,176.578 124.248,176.618 124.042 C 176.657 123.835,176.657 123.498,176.618 123.292 C 176.578 123.085,176.545 123.254,176.545 123.667 M118.383 124.000 C 118.383 124.504,118.415 124.710,118.453 124.458 C 118.491 124.206,118.491 123.794,118.453 123.542 C 118.415 123.290,118.383 123.496,118.383 124.000 M153.542 124.750 C 153.544 125.117,153.578 125.247,153.618 125.040 C 153.658 124.832,153.656 124.532,153.615 124.373 C 153.573 124.214,153.540 124.383,153.542 124.750 M176.379 125.500 C 176.379 125.912,176.411 126.081,176.451 125.875 C 176.491 125.669,176.491 125.331,176.451 125.125 C 176.411 124.919,176.379 125.087,176.379 125.500 M281.542 125.583 C 281.544 125.950,281.578 126.080,281.618 125.873 C 281.658 125.666,281.656 125.366,281.615 125.206 C 281.573 125.047,281.540 125.217,281.542 125.583 M118.542 125.917 C 118.544 126.283,118.578 126.414,118.618 126.206 C 118.658 125.999,118.656 125.699,118.615 125.540 C 118.573 125.380,118.540 125.550,118.542 125.917 M176.214 127.083 C 176.216 127.542,176.248 127.709,176.286 127.456 C 176.325 127.203,176.324 126.828,176.284 126.623 C 176.244 126.418,176.213 126.625,176.214 127.083 M181.971 130.625 C 185.300 130.650,190.700 130.650,193.971 130.625 C 197.241 130.600,194.517 130.579,187.917 130.579 C 181.317 130.579,178.641 130.600,181.971 130.625 M152.717 134.167 C 152.717 134.671,152.748 134.877,152.786 134.625 C 152.824 134.373,152.824 133.960,152.786 133.708 C 152.748 133.456,152.717 133.662,152.717 134.167 M119.372 135.000 C 119.372 135.321,119.406 135.452,119.448 135.292 C 119.490 135.131,119.490 134.869,119.448 134.708 C 119.406 134.548,119.372 134.679,119.372 135.000 M152.545 136.167 C 152.545 136.579,152.578 136.748,152.618 136.542 C 152.657 136.335,152.657 135.998,152.618 135.792 C 152.578 135.585,152.545 135.754,152.545 136.167 M119.542 137.250 C 119.544 137.617,119.578 137.747,119.618 137.540 C 119.658 137.332,119.656 137.032,119.615 136.873 C 119.573 136.714,119.540 136.883,119.542 137.250 M280.372 139.000 C 280.372 139.321,280.406 139.452,280.448 139.292 C 280.490 139.131,280.490 138.869,280.448 138.708 C 280.406 138.548,280.372 138.679,280.372 139.000 M119.709 139.250 C 119.711 139.617,119.745 139.747,119.785 139.540 C 119.824 139.332,119.823 139.032,119.781 138.873 C 119.739 138.714,119.707 138.883,119.709 139.250 M151.705 145.667 C 151.705 145.987,151.740 146.119,151.782 145.958 C 151.823 145.798,151.823 145.535,151.782 145.375 C 151.740 145.215,151.705 145.346,151.705 145.667 M151.375 150.083 C 151.377 150.450,151.411 150.580,151.451 150.373 C 151.491 150.166,151.490 149.866,151.448 149.706 C 151.406 149.547,151.374 149.717,151.375 150.083 M120.709 150.583 C 120.711 150.950,120.745 151.080,120.785 150.873 C 120.824 150.666,120.823 150.366,120.781 150.206 C 120.739 150.047,120.707 150.217,120.709 150.583 M198.996 153.291 C 199.499 153.325,199.952 153.422,200.004 153.506 C 200.127 153.706,200.065 181.625,199.937 183.583 C 199.753 186.387,199.624 187.416,199.437 187.555 C 198.906 187.947,208.123 185.893,210.917 184.997 C 211.192 184.908,212.579 184.525,214.000 184.145 C 221.797 182.061,223.811 181.415,223.991 180.941 C 224.288 180.160,224.744 175.900,225.582 166.083 C 225.932 161.991,226.283 158.457,226.781 154.042 L 226.880 153.167 212.482 153.197 C 204.563 153.214,198.494 153.256,198.996 153.291 M121.214 155.750 C 121.216 156.208,121.248 156.376,121.286 156.123 C 121.325 155.869,121.324 155.494,121.284 155.289 C 121.244 155.084,121.213 155.292,121.214 155.750 M121.381 157.417 C 121.382 157.875,121.415 158.043,121.453 157.789 C 121.491 157.536,121.490 157.161,121.451 156.956 C 121.411 156.751,121.380 156.958,121.381 157.417 M278.712 157.500 C 278.712 157.912,278.745 158.081,278.784 157.875 C 278.824 157.669,278.824 157.331,278.784 157.125 C 278.745 156.919,278.712 157.087,278.712 157.500 M153.208 163.948 C 153.369 163.990,153.631 163.990,153.792 163.948 C 153.952 163.906,153.821 163.872,153.500 163.872 C 153.179 163.872,153.048 163.906,153.208 163.948 M155.208 163.948 C 155.369 163.990,155.631 163.990,155.792 163.948 C 155.952 163.906,155.821 163.872,155.500 163.872 C 155.179 163.872,155.048 163.906,155.208 163.948 M157.208 163.948 C 157.369 163.990,157.631 163.990,157.792 163.948 C 157.952 163.906,157.821 163.872,157.500 163.872 C 157.179 163.872,157.048 163.906,157.208 163.948 M159.208 163.948 C 159.369 163.990,159.631 163.990,159.792 163.948 C 159.952 163.906,159.821 163.872,159.500 163.872 C 159.179 163.872,159.048 163.906,159.208 163.948 M161.208 163.948 C 161.369 163.990,161.631 163.990,161.792 163.948 C 161.952 163.906,161.821 163.872,161.500 163.872 C 161.179 163.872,161.048 163.906,161.208 163.948 M163.208 163.948 C 163.369 163.990,163.631 163.990,163.792 163.948 C 163.952 163.906,163.821 163.872,163.500 163.872 C 163.179 163.872,163.048 163.906,163.208 163.948 M165.208 163.948 C 165.369 163.990,165.631 163.990,165.792 163.948 C 165.952 163.906,165.821 163.872,165.500 163.872 C 165.179 163.872,165.048 163.906,165.208 163.948 M167.208 163.948 C 167.369 163.990,167.631 163.990,167.792 163.948 C 167.952 163.906,167.821 163.872,167.500 163.872 C 167.179 163.872,167.048 163.906,167.208 163.948 M169.208 163.948 C 169.369 163.990,169.631 163.990,169.792 163.948 C 169.952 163.906,169.821 163.872,169.500 163.872 C 169.179 163.872,169.048 163.906,169.208 163.948 M171.208 163.948 C 171.369 163.990,171.631 163.990,171.792 163.948 C 171.952 163.906,171.821 163.872,171.500 163.872 C 171.179 163.872,171.048 163.906,171.208 163.948 M122.214 167.083 C 122.216 167.542,122.248 167.709,122.286 167.456 C 122.325 167.203,122.324 166.828,122.284 166.623 C 122.244 166.418,122.213 166.625,122.214 167.083 M151.379 168.000 C 151.379 168.412,151.411 168.581,151.451 168.375 C 151.491 168.169,151.491 167.831,151.451 167.625 C 151.411 167.419,151.379 167.587,151.379 168.000 M174.209 168.250 C 174.211 168.617,174.245 168.747,174.285 168.540 C 174.324 168.332,174.323 168.032,174.281 167.873 C 174.239 167.714,174.207 167.883,174.209 168.250 M277.717 168.667 C 277.717 169.171,277.748 169.377,277.786 169.125 C 277.824 168.873,277.824 168.460,277.786 168.208 C 277.748 167.956,277.717 168.162,277.717 168.667 M122.381 168.750 C 122.382 169.208,122.415 169.376,122.453 169.123 C 122.491 168.869,122.490 168.494,122.451 168.289 C 122.411 168.084,122.380 168.292,122.381 168.750 M174.381 169.750 C 174.382 170.208,174.415 170.376,174.453 170.123 C 174.491 169.869,174.490 169.494,174.451 169.289 C 174.411 169.084,174.380 169.292,174.381 169.750 M122.545 170.667 C 122.545 171.079,122.578 171.248,122.618 171.042 C 122.657 170.835,122.657 170.498,122.618 170.292 C 122.578 170.085,122.545 170.254,122.545 170.667 M277.542 170.583 C 277.544 170.950,277.578 171.080,277.618 170.873 C 277.658 170.666,277.656 170.366,277.615 170.206 C 277.573 170.047,277.540 170.217,277.542 170.583 M151.539 170.833 C 151.539 171.154,151.573 171.285,151.615 171.125 C 151.657 170.965,151.657 170.702,151.615 170.542 C 151.573 170.381,151.539 170.512,151.539 170.833 M151.709 173.083 C 151.711 173.450,151.745 173.580,151.785 173.373 C 151.824 173.166,151.823 172.866,151.781 172.706 C 151.739 172.547,151.707 172.717,151.709 173.083 M174.872 175.833 C 174.872 176.154,174.906 176.285,174.948 176.125 C 174.990 175.965,174.990 175.702,174.948 175.542 C 174.906 175.381,174.872 175.512,174.872 175.833 M175.039 177.500 C 175.039 177.821,175.073 177.952,175.115 177.792 C 175.157 177.631,175.157 177.369,175.115 177.208 C 175.073 177.048,175.039 177.179,175.039 177.500 M123.207 178.250 C 123.203 178.617,123.257 179.329,123.326 179.833 C 123.436 180.626,123.454 180.659,123.460 180.083 C 123.464 179.717,123.410 179.004,123.340 178.500 C 123.231 177.708,123.213 177.674,123.207 178.250 M175.214 179.417 C 175.216 179.875,175.248 180.043,175.286 179.789 C 175.325 179.536,175.324 179.161,175.284 178.956 C 175.244 178.751,175.213 178.958,175.214 179.417 M276.714 179.917 C 276.716 180.375,276.748 180.543,276.786 180.289 C 276.825 180.036,276.824 179.661,276.784 179.456 C 276.744 179.251,276.713 179.458,276.714 179.917 M175.372 180.833 C 175.372 181.154,175.406 181.285,175.448 181.125 C 175.490 180.965,175.490 180.702,175.448 180.542 C 175.406 180.381,175.372 180.512,175.372 180.833 M123.542 181.917 C 123.544 182.283,123.578 182.414,123.618 182.206 C 123.658 181.999,123.656 181.699,123.615 181.540 C 123.573 181.380,123.540 181.550,123.542 181.917 M276.539 181.833 C 276.539 182.154,276.573 182.285,276.615 182.125 C 276.657 181.965,276.657 181.702,276.615 181.542 C 276.573 181.381,276.539 181.512,276.539 181.833 M152.542 182.083 C 152.544 182.450,152.578 182.580,152.618 182.373 C 152.658 182.166,152.656 181.866,152.615 181.706 C 152.573 181.547,152.540 181.717,152.542 182.083 M152.712 183.833 C 152.712 184.246,152.745 184.415,152.784 184.208 C 152.824 184.002,152.824 183.665,152.784 183.458 C 152.745 183.252,152.712 183.421,152.712 183.833 M124.372 191.000 C 124.372 191.321,124.406 191.452,124.448 191.292 C 124.490 191.131,124.490 190.869,124.448 190.708 C 124.406 190.548,124.372 190.679,124.372 191.000 M153.705 192.833 C 153.705 193.154,153.740 193.285,153.782 193.125 C 153.823 192.965,153.823 192.702,153.782 192.542 C 153.740 192.381,153.705 192.512,153.705 192.833 M124.539 193.167 C 124.539 193.487,124.573 193.619,124.615 193.458 C 124.657 193.298,124.657 193.035,124.615 192.875 C 124.573 192.715,124.539 192.846,124.539 193.167 M124.705 195.333 C 124.705 195.654,124.740 195.785,124.782 195.625 C 124.823 195.465,124.823 195.202,124.782 195.042 C 124.740 194.881,124.705 195.012,124.705 195.333 M155.750 199.333 C 155.933 199.412,156.196 199.477,156.333 199.477 C 156.491 199.477,156.460 199.424,156.250 199.333 C 156.067 199.255,155.804 199.190,155.667 199.190 C 155.509 199.190,155.540 199.243,155.750 199.333 M125.209 200.417 C 125.211 200.783,125.245 200.914,125.285 200.706 C 125.324 200.499,125.323 200.199,125.281 200.040 C 125.239 199.880,125.207 200.050,125.209 200.417 M125.379 202.167 C 125.379 202.579,125.411 202.748,125.451 202.542 C 125.491 202.335,125.491 201.998,125.451 201.792 C 125.411 201.585,125.379 201.754,125.379 202.167 M274.705 202.333 C 274.705 202.654,274.740 202.785,274.782 202.625 C 274.823 202.465,274.823 202.202,274.782 202.042 C 274.740 201.881,274.705 202.012,274.705 202.333 M125.705 206.667 C 125.705 206.987,125.740 207.119,125.782 206.958 C 125.823 206.798,125.823 206.535,125.782 206.375 C 125.740 206.215,125.705 206.346,125.705 206.667 M274.205 208.000 C 274.205 208.321,274.240 208.452,274.282 208.292 C 274.323 208.131,274.323 207.869,274.282 207.708 C 274.240 207.548,274.205 207.679,274.205 208.000 M125.872 208.167 C 125.872 208.487,125.906 208.619,125.948 208.458 C 125.990 208.298,125.990 208.035,125.948 207.875 C 125.906 207.715,125.872 207.846,125.872 208.167 M274.042 209.750 C 274.044 210.117,274.078 210.247,274.118 210.040 C 274.158 209.832,274.156 209.532,274.115 209.373 C 274.073 209.214,274.040 209.383,274.042 209.750 M126.042 209.917 C 126.044 210.283,126.078 210.414,126.118 210.206 C 126.158 209.999,126.156 209.699,126.115 209.540 C 126.073 209.380,126.040 209.550,126.042 209.917 M126.217 211.667 C 126.217 212.171,126.248 212.377,126.286 212.125 C 126.324 211.873,126.324 211.460,126.286 211.208 C 126.248 210.956,126.217 211.162,126.217 211.667 M197.833 211.149 C 197.971 211.234,198.383 211.347,198.750 211.400 C 199.222 211.469,199.295 211.457,199.000 211.359 C 198.235 211.105,197.566 210.984,197.833 211.149 M273.872 211.500 C 273.872 211.821,273.906 211.952,273.948 211.792 C 273.990 211.631,273.990 211.369,273.948 211.208 C 273.906 211.048,273.872 211.179,273.872 211.500 M273.714 213.083 C 273.716 213.542,273.748 213.709,273.786 213.456 C 273.825 213.203,273.824 212.828,273.784 212.623 C 273.744 212.418,273.713 212.625,273.714 213.083 M126.381 213.417 C 126.382 213.875,126.415 214.043,126.453 213.789 C 126.491 213.536,126.490 213.161,126.451 212.956 C 126.411 212.751,126.380 212.958,126.381 213.417 M126.542 215.417 C 126.544 215.783,126.578 215.914,126.618 215.706 C 126.658 215.499,126.656 215.199,126.615 215.040 C 126.573 214.880,126.540 215.050,126.542 215.417 M127.214 223.083 C 127.216 223.542,127.248 223.709,127.286 223.456 C 127.325 223.203,127.324 222.828,127.284 222.623 C 127.244 222.418,127.213 222.625,127.214 223.083 M127.381 224.750 C 127.382 225.208,127.415 225.376,127.453 225.123 C 127.491 224.869,127.490 224.494,127.451 224.289 C 127.411 224.084,127.380 224.292,127.381 224.750 M272.548 226.250 C 272.549 226.708,272.581 226.876,272.620 226.623 C 272.658 226.369,272.657 225.994,272.617 225.789 C 272.578 225.584,272.546 225.792,272.548 226.250 M127.545 226.667 C 127.545 227.079,127.578 227.248,127.618 227.042 C 127.657 226.835,127.657 226.498,127.618 226.292 C 127.578 226.085,127.545 226.254,127.545 226.667 M174.250 242.667 C 174.433 242.745,174.696 242.810,174.833 242.810 C 174.991 242.810,174.960 242.757,174.750 242.667 C 174.567 242.588,174.304 242.523,174.167 242.523 C 174.009 242.523,174.040 242.576,174.250 242.667 M224.917 242.667 C 224.707 242.757,224.676 242.810,224.833 242.810 C 224.971 242.810,225.233 242.745,225.417 242.667 C 225.627 242.576,225.658 242.523,225.500 242.523 C 225.362 242.523,225.100 242.588,224.917 242.667 M210.167 246.667 C 209.832 246.774,209.815 246.801,210.083 246.805 C 210.267 246.808,210.567 246.745,210.750 246.667 C 211.175 246.484,210.737 246.484,210.167 246.667 " stroke="none" fill="#f3bc24" fill-rule="evenodd"/><path id="path3" d="M183.978 0.375 C 183.967 0.490,183.939 5.308,183.916 11.083 C 183.894 16.858,183.866 21.715,183.855 21.875 C 183.835 22.148,183.333 22.167,175.831 22.167 L 167.829 22.167 167.873 27.958 L 167.917 33.750 181.667 33.750 L 195.417 33.750 195.459 16.958 L 195.502 0.167 189.751 0.167 C 185.273 0.167,183.995 0.213,183.978 0.375 M200.500 4.070 L 200.500 7.974 201.250 8.724 C 201.662 9.136,202.000 9.518,202.000 9.571 C 202.000 9.625,202.431 10.105,202.958 10.637 C 203.485 11.170,204.592 12.348,205.417 13.255 C 206.935 14.923,208.840 17.002,209.688 17.917 C 211.597 19.974,212.008 20.449,212.088 20.690 C 212.137 20.841,212.331 21.004,212.518 21.053 C 212.705 21.102,212.896 21.288,212.943 21.467 C 212.990 21.645,213.247 21.953,213.514 22.151 C 213.781 22.348,214.000 22.572,214.000 22.648 C 214.000 22.724,214.267 23.070,214.594 23.416 C 215.541 24.420,215.601 24.411,207.867 24.467 C 204.044 24.495,200.823 24.549,200.708 24.587 C 200.548 24.640,200.500 25.722,200.500 29.246 L 200.500 33.835 216.375 33.793 L 232.250 33.750 232.295 29.731 L 232.339 25.713 231.711 25.047 C 231.366 24.680,230.333 23.566,229.417 22.571 C 226.408 19.306,225.275 18.092,224.633 17.446 C 224.285 17.095,224.000 16.762,224.000 16.706 C 224.000 16.650,223.531 16.133,222.958 15.557 C 222.385 14.980,221.504 14.055,221.000 13.500 C 220.496 12.945,219.615 12.020,219.042 11.443 C 218.469 10.867,218.000 10.333,218.000 10.258 C 218.000 10.182,217.886 10.037,217.747 9.935 C 217.533 9.779,217.552 9.746,217.872 9.725 C 218.533 9.680,224.625 9.488,228.163 9.399 C 230.542 9.340,231.614 9.254,231.702 9.116 C 231.771 9.006,231.829 6.948,231.831 4.542 L 231.833 0.167 216.167 0.167 L 200.500 0.167 200.500 4.070 " stroke="none" fill="#0c0c0c" fill-rule="evenodd"/></g></svg>