<svg xmlns="http://www.w3.org/2000/svg" xmlns:xlink="http://www.w3.org/1999/xlink" id="svg" version="1.1" viewBox="0 0 400 380.23"><g id="svgg"><path id="path0" d="M257.034 19.253 C 241.124 21.291,222.928 31.379,203.809 48.762 C 199.917 52.300,200.856 52.321,196.765 48.607 C 166.469 21.107,136.393 12.126,121.322 26.080 C 108.719 37.748,105.489 67.165,113.359 98.618 C 113.770 100.263,114.056 101.650,113.993 101.700 C 113.930 101.749,110.843 102.761,107.133 103.947 C 69.533 115.970,48.134 136.316,52.067 156.305 C 55.319 172.835,76.587 189.658,107.159 199.885 C 113.540 202.020,113.742 202.119,113.574 203.041 C 113.479 203.564,112.796 206.987,112.057 210.646 C 99.685 271.875,125.022 299.646,170.368 274.561 C 180.133 269.159,196.460 256.887,200.262 252.091 C 200.648 251.604,201.010 251.803,202.734 253.446 C 225.540 275.186,250.268 286.729,266.730 283.321 C 279.928 280.588,288.049 269.338,291.057 249.620 C 292.640 239.240,291.472 220.508,288.379 206.698 C 287.869 204.422,287.452 202.277,287.452 201.933 C 287.452 201.465,288.728 200.889,292.484 199.663 C 331.659 186.873,353.643 165.114,347.966 144.749 C 343.454 128.562,321.070 112.273,291.065 103.341 C 288.973 102.719,287.144 102.097,286.998 101.960 C 286.853 101.823,287.309 98.861,288.012 95.378 C 297.696 47.367,284.808 15.695,257.034 19.253 M264.549 32.481 C 278.133 36.097,282.667 65.561,274.486 97.053 C 274.038 98.776,274.566 98.767,266.699 97.188 C 258.635 95.569,249.234 94.110,240.880 93.181 C 234.962 92.523,234.374 92.390,233.846 91.587 C 230.199 86.038,218.522 71.311,212.226 64.318 L 209.370 61.146 210.674 59.928 C 231.624 40.347,253.065 29.424,264.549 32.481 M144.912 32.878 C 157.320 35.054,171.480 43.499,189.700 59.589 L 191.377 61.070 186.713 66.371 C 181.118 72.730,174.855 80.504,169.818 87.344 C 166.645 91.653,165.944 92.396,164.903 92.560 C 164.235 92.665,161.122 93.025,157.985 93.360 C 151.060 94.101,140.643 95.728,132.718 97.307 C 125.945 98.656,126.584 98.925,125.543 94.297 C 121.161 74.810,120.693 57.827,124.213 46.014 C 127.611 34.607,133.492 30.875,144.912 32.878 M204.018 74.430 C 207.013 77.778,216.555 89.522,217.171 90.618 C 217.361 90.957,213.306 91.065,200.346 91.065 C 190.954 91.065,183.270 90.975,183.270 90.866 C 183.270 90.051,199.687 70.722,200.380 70.722 C 200.557 70.722,202.194 72.391,204.018 74.430 M224.371 104.418 L 227.259 104.655 228.924 107.175 C 237.359 119.941,245.344 133.606,252.261 147.112 L 254.481 151.448 251.514 157.299 C 245.237 169.672,235.568 186.292,228.858 196.241 C 227.113 198.828,227.997 198.671,211.851 199.261 C 201.379 199.644,178.525 199.252,174.514 198.620 C 172.999 198.381,167.240 190.023,160.273 177.947 C 159.610 176.797,158.083 174.159,156.881 172.085 C 153.964 167.053,146.388 152.338,146.388 151.705 C 146.388 149.933,159.254 126.435,166.410 115.137 C 172.671 105.253,173.226 104.569,175.025 104.518 C 175.900 104.493,178.926 104.339,181.749 104.176 C 187.349 103.852,219.713 104.036,224.371 104.418 M156.274 106.871 C 156.274 107.094,155.787 107.993,155.193 108.867 C 154.598 109.741,152.460 113.233,150.442 116.627 C 147.070 122.297,145.728 124.673,141.065 133.231 L 139.428 136.235 138.682 134.780 C 138.271 133.980,137.624 132.457,137.244 131.396 C 136.863 130.336,135.927 127.842,135.164 125.856 C 132.797 119.693,130.131 111.490,130.375 111.121 C 130.663 110.686,139.398 108.961,148.289 107.583 C 156.198 106.357,156.274 106.351,156.274 106.871 M250.760 107.426 C 256.440 108.271,267.808 110.351,269.677 110.887 C 270.901 111.238,269.058 117.171,263.106 132.034 C 261.131 136.965,261.481 136.948,258.935 132.239 C 255.563 126.001,250.314 116.907,247.096 111.727 C 244.405 107.394,243.893 106.464,244.202 106.464 C 244.254 106.464,247.205 106.897,250.760 107.426 M119.028 118.916 C 120.763 124.173,125.109 135.838,126.925 140.114 C 127.547 141.578,128.927 144.786,129.993 147.243 L 131.930 151.710 130.943 153.897 C 126.598 163.521,120.880 178.312,118.374 186.407 C 117.313 189.835,117.595 189.748,112.647 188.170 C 85.031 179.363,64.459 163.636,64.459 151.331 C 64.459 139.487,83.329 125.137,110.456 116.352 C 116.845 114.283,117.262 114.147,117.364 114.098 C 117.399 114.082,118.148 116.250,119.028 118.916 M287.223 115.568 C 316.598 125.070,336.164 139.451,336.117 151.506 C 336.072 163.031,317.152 177.582,290.173 186.841 C 286.756 188.014,283.904 188.973,283.836 188.973 C 283.768 188.973,283.164 187.305,282.492 185.266 C 279.769 176.997,275.476 166.216,270.836 155.995 L 268.724 151.344 270.648 147.060 C 274.652 138.143,278.573 128.144,281.235 120.065 C 282.250 116.984,283.233 114.460,283.421 114.456 C 283.608 114.452,285.319 114.952,287.223 115.568 M195.817 124.953 C 167.278 130.459,166.007 170.499,194.159 177.225 C 218.043 182.932,235.792 155.730,221.415 135.451 C 216.137 128.006,204.572 123.264,195.817 124.953 M141.743 171.198 C 144.894 177.143,149.612 185.318,153.429 191.445 C 155.203 194.292,156.654 196.698,156.654 196.790 C 156.654 197.541,131.078 193.562,130.189 192.673 C 129.699 192.183,138.711 166.920,139.376 166.920 C 139.431 166.920,140.496 168.845,141.743 171.198 M262.408 168.726 C 266.039 177.090,271.439 191.806,271.027 192.217 C 270.467 192.777,244.592 197.190,244.195 196.793 C 244.094 196.693,245.085 194.850,246.397 192.697 C 250.255 186.365,251.450 184.289,256.362 175.392 C 261.559 165.979,261.327 166.235,262.408 168.726 M275.663 208.546 C 282.146 236.347,278.621 263.915,267.871 269.489 C 256.989 275.131,233.701 264.906,212.974 245.385 L 209.787 242.384 213.089 238.615 C 219.360 231.457,228.444 219.793,233.022 213.023 C 233.906 211.716,234.878 210.646,235.182 210.646 C 239.348 210.646,260.635 207.604,269.392 205.757 C 275.214 204.529,274.670 204.287,275.663 208.546 M131.838 206.263 C 137.879 207.533,150.138 209.328,157.795 210.063 C 161.245 210.394,164.587 210.748,165.222 210.848 C 166.196 211.002,167.065 211.961,170.809 217.017 C 176.910 225.255,184.569 234.602,189.449 239.766 C 192.150 242.625,192.251 242.169,188.088 245.908 C 166.827 265.005,143.811 274.869,132.872 269.573 C 122.776 264.686,119.152 243.086,123.975 216.540 C 125.388 208.764,126.264 205.323,126.831 205.323 C 127.124 205.323,129.378 205.746,131.838 206.263 M217.308 212.780 C 215.253 215.916,204.000 229.821,201.400 232.437 C 200.510 233.331,197.182 229.798,187.341 217.507 L 183.217 212.357 199.879 212.161 C 209.042 212.053,216.859 211.925,217.249 211.876 C 217.927 211.791,217.929 211.831,217.308 212.780 M101.713 311.077 C 101.603 311.363,101.558 322.633,101.613 336.122 L 101.711 360.646 106.361 360.753 L 111.010 360.860 111.113 353.529 L 111.217 346.198 117.549 346.094 L 123.881 345.990 126.894 350.276 C 128.552 352.634,130.890 355.974,132.090 357.700 L 134.273 360.837 139.190 360.837 C 141.894 360.837,144.106 360.734,144.106 360.609 C 144.106 360.370,135.615 348.060,134.257 346.331 C 132.884 344.583,132.947 344.363,135.152 343.213 C 148.721 336.134,145.228 315.895,129.716 311.713 C 125.942 310.696,102.066 310.153,101.713 311.077 M282.427 318.334 L 282.319 322.624 279.278 322.814 L 276.236 323.004 276.127 326.505 L 276.018 330.007 279.168 330.117 L 282.319 330.228 282.510 341.635 C 282.744 355.706,283.414 357.579,289.126 360.141 C 293.310 362.018,303.802 360.769,303.802 358.394 C 303.802 357.934,302.040 353.117,301.655 352.526 C 301.607 352.452,300.791 352.687,299.843 353.049 C 297.470 353.956,294.256 353.684,292.962 352.468 C 291.467 351.064,291.259 349.474,291.257 339.449 L 291.255 330.038 296.402 330.038 L 301.549 330.038 301.440 326.521 L 301.331 323.004 296.305 322.898 L 291.279 322.792 291.172 318.525 L 291.065 314.259 286.800 314.151 L 282.535 314.044 282.427 318.334 M127.304 319.550 C 135.601 322.200,136.295 333.750,128.372 337.331 C 126.582 338.140,125.810 338.220,118.726 338.335 L 111.027 338.459 111.027 328.799 C 111.027 323.485,111.155 319.007,111.312 318.848 C 111.872 318.277,125.143 318.860,127.304 319.550 M165.906 322.418 C 147.264 325.313,143.419 351.186,160.456 359.093 C 168.444 362.800,179.635 361.461,184.696 356.192 L 185.933 354.906 183.644 352.206 L 181.354 349.507 178.938 351.127 C 171.485 356.125,161.189 353.172,158.768 345.342 L 158.504 344.487 173.318 344.487 C 189.764 344.487,188.606 344.684,188.580 341.889 C 188.459 329.218,178.299 320.493,165.906 322.418 M206.358 322.435 C 201.660 323.015,194.291 325.943,194.548 327.127 C 194.582 327.283,195.303 328.743,196.150 330.370 L 197.689 333.329 200.651 331.873 C 209.406 327.568,218.631 330.175,218.631 336.954 L 218.631 338.307 210.932 338.492 C 196.577 338.837,190.917 343.652,193.730 353.126 C 196.102 361.114,210.905 364.167,217.588 358.046 L 218.976 356.774 219.089 358.710 L 219.202 360.646 223.384 360.646 L 227.567 360.646 227.567 347.529 C 227.567 332.906,227.424 331.845,224.980 328.299 C 221.800 323.684,214.601 321.417,206.358 322.435 M253.232 322.446 C 240.099 324.286,232.887 336.926,237.728 349.620 C 242.566 362.308,263.075 365.342,271.549 354.624 C 273.434 352.239,273.526 352.454,269.683 350.224 L 266.362 348.297 264.776 349.953 C 257.408 357.642,245.480 352.508,245.451 341.635 C 245.421 330.919,257.797 325.727,264.826 333.506 C 265.583 334.345,266.321 334.976,266.466 334.911 C 267.709 334.347,272.666 331.418,272.832 331.149 C 272.949 330.960,272.521 330.044,271.882 329.115 C 268.286 323.888,261.151 321.337,253.232 322.446 M171.742 329.786 C 175.559 330.586,177.882 332.575,179.272 336.234 C 180.269 338.859,180.481 338.808,168.986 338.695 L 158.745 338.593 158.865 337.452 C 159.232 333.972,162.888 330.520,167.110 329.668 C 169.227 329.241,169.128 329.238,171.742 329.786 M218.631 346.901 C 218.631 350.058,217.384 351.910,214.213 353.461 C 208.604 356.205,202.091 353.936,202.091 349.237 C 202.091 345.568,204.336 344.584,212.833 344.526 L 218.631 344.487 218.631 346.901 " stroke="none" fill="#54c4e4" fill-rule="evenodd"/><path id="path1" d="M0.000 190.114 L 0.000 380.228 200.000 380.228 L 400.000 380.228 400.000 190.114 L 400.000 0.000 200.000 0.000 L 0.000 0.000 0.000 190.114 M268.441 20.172 C 288.653 25.748,296.204 54.763,288.012 95.378 C 287.309 98.861,286.853 101.823,286.998 101.960 C 287.144 102.097,288.973 102.719,291.065 103.341 C 321.070 112.273,343.454 128.562,347.966 144.749 C 353.643 165.114,331.659 186.873,292.484 199.663 C 288.728 200.889,287.452 201.465,287.452 201.933 C 287.452 202.277,287.869 204.422,288.379 206.698 C 290.954 218.195,292.176 231.745,291.598 242.395 C 290.112 269.797,278.286 284.915,259.125 283.908 C 242.801 283.049,222.005 271.815,202.734 253.446 C 201.010 251.803,200.648 251.604,200.262 252.091 C 196.460 256.887,180.133 269.159,170.368 274.561 C 125.022 299.646,99.685 271.875,112.057 210.646 C 112.796 206.987,113.479 203.564,113.574 203.041 C 113.742 202.119,113.540 202.020,107.159 199.885 C 76.587 189.658,55.319 172.835,52.067 156.305 C 48.134 136.316,69.533 115.970,107.133 103.947 C 110.843 102.761,113.930 101.749,113.993 101.700 C 114.056 101.650,113.770 100.263,113.359 98.618 C 105.489 67.165,108.719 37.748,121.322 26.080 C 136.393 12.126,166.469 21.107,196.765 48.607 C 200.856 52.321,199.917 52.300,203.809 48.762 C 228.539 26.278,252.367 15.737,268.441 20.172 M254.753 32.698 C 242.101 35.446,226.667 44.980,210.674 59.928 L 209.370 61.146 212.226 64.318 C 218.522 71.311,230.199 86.038,233.846 91.587 C 234.374 92.390,234.962 92.523,240.880 93.181 C 249.234 94.110,258.635 95.569,266.699 97.188 C 274.566 98.767,274.038 98.776,274.486 97.053 C 277.257 86.388,278.998 69.841,278.331 60.510 C 276.716 37.910,269.569 29.480,254.753 32.698 M135.136 32.854 C 122.181 35.999,118.187 61.582,125.543 94.297 C 126.584 98.925,125.945 98.656,132.718 97.307 C 140.643 95.728,151.060 94.101,157.985 93.360 C 161.122 93.025,164.235 92.665,164.903 92.560 C 165.944 92.396,166.645 91.653,169.818 87.344 C 174.855 80.504,181.118 72.730,186.713 66.371 L 191.377 61.070 189.700 59.589 C 179.943 50.973,175.374 47.435,168.165 42.915 C 154.826 34.551,142.992 30.947,135.136 32.854 M196.240 75.000 C 192.479 79.214,183.270 90.479,183.270 90.866 C 183.270 90.975,190.954 91.065,200.346 91.065 C 213.306 91.065,217.361 90.957,217.171 90.618 C 215.812 88.200,201.062 70.722,200.380 70.722 C 200.203 70.722,198.340 72.647,196.240 75.000 M181.749 104.176 C 178.926 104.339,175.900 104.493,175.025 104.518 C 173.226 104.569,172.671 105.253,166.410 115.137 C 159.254 126.435,146.388 149.933,146.388 151.705 C 146.388 152.338,153.964 167.053,156.881 172.085 C 158.083 174.159,159.610 176.797,160.273 177.947 C 167.240 190.023,172.999 198.381,174.514 198.620 C 178.525 199.252,201.379 199.644,211.851 199.261 C 227.997 198.671,227.113 198.828,228.858 196.241 C 235.568 186.292,245.237 169.672,251.514 157.299 L 254.481 151.448 252.261 147.112 C 245.344 133.606,237.359 119.941,228.924 107.175 L 227.259 104.655 224.371 104.418 C 219.713 104.036,187.349 103.852,181.749 104.176 M148.289 107.583 C 139.398 108.961,130.663 110.686,130.375 111.121 C 130.131 111.490,132.797 119.693,135.164 125.856 C 135.927 127.842,136.863 130.336,137.244 131.396 C 137.624 132.457,138.271 133.980,138.682 134.780 L 139.428 136.235 141.065 133.231 C 145.728 124.673,147.070 122.297,150.442 116.627 C 152.460 113.233,154.598 109.741,155.193 108.867 C 157.096 106.069,157.533 106.151,148.289 107.583 M244.106 106.689 C 244.106 106.813,245.452 109.080,247.096 111.727 C 250.314 116.907,255.563 126.001,258.935 132.239 C 261.481 136.948,261.131 136.965,263.106 132.034 C 269.058 117.171,270.901 111.238,269.677 110.887 C 267.808 110.351,256.440 108.271,250.760 107.426 C 243.303 106.316,244.106 106.405,244.106 106.689 M116.920 114.255 C 116.711 114.325,113.802 115.268,110.456 116.352 C 83.329 125.137,64.459 139.487,64.459 151.331 C 64.459 163.636,85.031 179.363,112.647 188.170 C 117.595 189.748,117.313 189.835,118.374 186.407 C 120.880 178.312,126.598 163.521,130.943 153.897 L 131.930 151.710 129.993 147.243 C 128.927 144.786,127.547 141.578,126.925 140.114 C 125.109 135.838,120.763 124.173,119.028 118.916 C 118.148 116.250,117.399 114.082,117.364 114.098 C 117.329 114.115,117.129 114.185,116.920 114.255 M281.235 120.065 C 278.573 128.144,274.652 138.143,270.648 147.060 L 268.724 151.344 270.836 155.995 C 275.476 166.216,279.769 176.997,282.492 185.266 C 283.164 187.305,283.768 188.973,283.836 188.973 C 283.904 188.973,286.756 188.014,290.173 186.841 C 317.152 177.582,336.072 163.031,336.117 151.506 C 336.160 140.511,318.516 126.524,293.411 117.652 C 289.412 116.238,283.813 114.448,283.421 114.456 C 283.233 114.460,282.250 116.984,281.235 120.065 M207.795 125.853 C 233.164 133.770,232.624 170.103,207.034 177.018 C 190.185 181.571,173.630 168.841,173.630 151.331 C 173.630 133.518,190.956 120.598,207.795 125.853 M137.278 171.931 C 133.347 181.797,129.773 192.257,130.189 192.673 C 131.078 193.562,156.654 197.541,156.654 196.790 C 156.654 196.698,155.203 194.292,153.429 191.445 C 149.612 185.318,144.894 177.143,141.743 171.198 C 140.496 168.845,139.431 166.920,139.376 166.920 C 139.320 166.920,138.376 169.175,137.278 171.931 M256.362 175.392 C 251.450 184.289,250.255 186.365,246.397 192.697 C 245.085 194.850,244.094 196.693,244.195 196.793 C 244.592 197.190,270.467 192.777,271.027 192.217 C 271.618 191.627,262.130 166.900,261.325 166.932 C 261.161 166.938,258.928 170.745,256.362 175.392 M269.392 205.757 C 260.635 207.604,239.348 210.646,235.182 210.646 C 234.878 210.646,233.906 211.716,233.022 213.023 C 228.444 219.793,219.360 231.457,213.089 238.615 L 209.787 242.384 212.974 245.385 C 233.701 264.906,256.989 275.131,267.871 269.489 C 278.621 263.915,282.146 236.347,275.663 208.546 C 274.670 204.287,275.214 204.529,269.392 205.757 M125.517 208.840 C 118.701 239.516,121.685 264.158,132.872 269.573 C 143.811 274.869,166.827 265.005,188.088 245.908 C 192.251 242.169,192.150 242.625,189.449 239.766 C 184.569 234.602,176.910 225.255,170.809 217.017 C 167.065 211.961,166.196 211.002,165.222 210.848 C 164.587 210.748,161.245 210.394,157.795 210.063 C 150.138 209.328,137.879 207.533,131.838 206.263 C 129.378 205.746,127.124 205.323,126.831 205.323 C 126.469 205.323,126.048 206.448,125.517 208.840 M199.879 212.161 L 183.217 212.357 187.341 217.507 C 197.182 229.798,200.510 233.331,201.400 232.437 C 204.000 229.821,215.253 215.916,217.308 212.780 C 217.929 211.831,217.927 211.791,217.249 211.876 C 216.859 211.925,209.042 212.053,199.879 212.161 M129.716 311.713 C 145.228 315.895,148.721 336.134,135.152 343.213 C 132.947 344.363,132.884 344.583,134.257 346.331 C 135.615 348.060,144.106 360.370,144.106 360.609 C 144.106 360.734,141.894 360.837,139.190 360.837 L 134.273 360.837 132.090 357.700 C 130.890 355.974,128.552 352.634,126.894 350.276 L 123.881 345.990 117.549 346.094 L 111.217 346.198 111.113 353.529 L 111.010 360.860 106.361 360.753 L 101.711 360.646 101.613 336.122 C 101.558 322.633,101.603 311.363,101.713 311.077 C 102.066 310.153,125.942 310.696,129.716 311.713 M291.172 318.525 L 291.279 322.792 296.305 322.898 L 301.331 323.004 301.440 326.521 L 301.549 330.038 296.402 330.038 L 291.255 330.038 291.257 339.449 C 291.259 349.474,291.467 351.064,292.962 352.468 C 294.256 353.684,297.470 353.956,299.843 353.049 C 300.791 352.687,301.607 352.452,301.655 352.526 C 302.040 353.117,303.802 357.934,303.802 358.394 C 303.802 360.769,293.310 362.018,289.126 360.141 C 283.414 357.579,282.744 355.706,282.510 341.635 L 282.319 330.228 279.168 330.117 L 276.018 330.007 276.127 326.505 L 276.236 323.004 279.278 322.814 L 282.319 322.624 282.427 318.334 L 282.535 314.044 286.800 314.151 L 291.065 314.259 291.172 318.525 M111.312 318.848 C 111.155 319.007,111.027 323.485,111.027 328.799 L 111.027 338.459 118.726 338.335 C 125.810 338.220,126.582 338.140,128.372 337.331 C 136.295 333.750,135.601 322.200,127.304 319.550 C 125.143 318.860,111.872 318.277,111.312 318.848 M175.856 323.258 C 183.585 325.812,188.495 333.003,188.580 341.889 C 188.606 344.684,189.764 344.487,173.318 344.487 L 158.504 344.487 158.768 345.342 C 161.189 353.172,171.485 356.125,178.938 351.127 L 181.354 349.507 183.644 352.206 L 185.933 354.906 184.696 356.192 C 176.993 364.211,159.247 362.338,152.902 352.837 C 142.346 337.029,157.692 317.254,175.856 323.258 M217.741 323.240 C 226.209 325.855,227.567 329.211,227.567 347.529 L 227.567 360.646 223.384 360.646 L 219.202 360.646 219.089 358.710 L 218.976 356.774 217.588 358.046 C 210.905 364.167,196.102 361.114,193.730 353.126 C 190.917 343.652,196.577 338.837,210.932 338.492 L 218.631 338.307 218.631 336.954 C 218.631 330.175,209.406 327.568,200.651 331.873 L 197.689 333.329 196.150 330.370 C 194.213 326.648,194.225 327.022,196.008 325.800 C 200.819 322.503,211.340 321.264,217.741 323.240 M260.177 322.440 C 265.922 323.271,274.186 328.958,272.832 331.149 C 272.666 331.418,267.709 334.347,266.466 334.911 C 266.321 334.976,265.583 334.345,264.826 333.506 C 257.797 325.727,245.421 330.919,245.451 341.635 C 245.480 352.508,257.408 357.642,264.776 349.953 L 266.362 348.297 269.683 350.224 C 273.526 352.454,273.434 352.239,271.549 354.624 C 263.075 365.342,242.566 362.308,237.728 349.620 C 231.870 334.259,243.611 320.045,260.177 322.440 M167.110 329.668 C 162.888 330.520,159.232 333.972,158.865 337.452 L 158.745 338.593 168.986 338.695 C 180.481 338.808,180.269 338.859,179.272 336.234 C 177.882 332.575,175.559 330.586,171.742 329.786 C 169.128 329.238,169.227 329.241,167.110 329.668 M205.654 344.933 C 201.116 346.143,200.812 351.594,205.158 353.802 C 210.811 356.674,218.631 352.669,218.631 346.901 L 218.631 344.487 212.833 344.526 C 209.644 344.548,206.413 344.731,205.654 344.933 " stroke="none" fill="#f3f4f4" fill-rule="evenodd"/></g></svg>